<svg width="178" height="45" viewBox="0 0 178 45" fill="none" xmlns="http://www.w3.org/2000/svg">
<path d="M155.5 45C143.076 45 133 34.9245 133 22.5C133 10.0755 143.076 0 155.5 0C167.925 0 178 10.0755 178 22.5C178 34.9245 167.925 45 155.5 45Z" fill="url(#paint0_linear_83_781)"/>
<path d="M155.5 9.90898C159.599 9.90898 160.085 9.92248 161.705 9.99898C163.204 10.0665 164.018 10.3185 164.558 10.53C165.274 10.809 165.787 11.142 166.322 11.6775C166.858 12.213 167.191 12.726 167.47 13.4415C167.681 13.9815 167.929 14.796 168.001 16.2945C168.073 17.9145 168.091 18.4005 168.091 22.5C168.091 26.5995 168.077 27.0855 168.001 28.7055C167.933 30.204 167.681 31.0185 167.47 31.5585C167.191 32.274 166.858 32.787 166.322 33.3225C165.787 33.858 165.274 34.191 164.558 34.47C164.018 34.6815 163.204 34.929 161.705 35.001C160.085 35.073 159.599 35.091 155.5 35.091C151.4 35.091 150.914 35.0775 149.294 35.001C147.796 34.9335 146.981 34.6815 146.441 34.47C145.726 34.191 145.213 33.858 144.677 33.3225C144.142 32.787 143.809 32.274 143.53 31.5585C143.318 31.0185 143.071 30.204 142.999 28.7055C142.927 27.0855 142.909 26.5995 142.909 22.5C142.909 18.4005 142.922 17.9145 142.999 16.2945C143.066 14.796 143.318 13.9815 143.53 13.4415C143.809 12.726 144.142 12.213 144.677 11.6775C145.213 11.142 145.726 10.809 146.441 10.53C146.981 10.3185 147.796 10.071 149.294 9.99898C150.914 9.92248 151.4 9.90898 155.5 9.90898ZM155.5 7.14148C151.328 7.14148 150.806 7.15948 149.168 7.23598C147.535 7.31248 146.419 7.56898 145.438 7.95148C144.43 8.33848 143.57 8.86498 142.72 9.71998C141.865 10.575 141.343 11.43 140.947 12.4425C140.569 13.419 140.308 14.535 140.231 16.173C140.155 17.811 140.137 18.333 140.137 22.5045C140.137 26.676 140.155 27.198 140.231 28.836C140.308 30.4695 140.564 31.5855 140.947 32.5665C141.338 33.57 141.865 34.4295 142.72 35.28C143.575 36.135 144.43 36.657 145.442 37.053C146.419 37.431 147.535 37.692 149.173 37.7685C150.811 37.845 151.333 37.863 155.504 37.863C159.676 37.863 160.198 37.845 161.836 37.7685C163.469 37.692 164.585 37.4355 165.566 37.053C166.57 36.6615 167.429 36.135 168.28 35.28C169.135 34.425 169.657 33.57 170.053 32.5575C170.431 31.581 170.692 30.465 170.768 28.827C170.845 27.189 170.863 26.667 170.863 22.4955C170.863 18.324 170.845 17.802 170.768 16.164C170.692 14.5305 170.435 13.4145 170.053 12.4335C169.661 11.43 169.135 10.5705 168.28 9.71998C167.425 8.86498 166.57 8.34298 165.557 7.94698C164.581 7.56898 163.465 7.30798 161.827 7.23148C160.193 7.15948 159.671 7.14148 155.5 7.14148Z" fill="white"/>
<path d="M155.5 14.6115C151.144 14.6115 147.611 18.1439 147.611 22.4999C147.611 26.8559 151.144 30.3884 155.5 30.3884C159.856 30.3884 163.388 26.8559 163.388 22.4999C163.388 18.1439 159.856 14.6115 155.5 14.6115ZM155.5 27.6209C152.674 27.6209 150.379 25.3304 150.379 22.4999C150.379 19.6694 152.674 17.379 155.5 17.379C158.326 17.379 160.621 19.6694 160.621 22.4999C160.621 25.3304 158.326 27.6209 155.5 27.6209Z" fill="white"/>
<path d="M163.699 16.146C164.717 16.146 165.544 15.32 165.544 14.301C165.544 13.282 164.717 12.456 163.699 12.456C162.68 12.456 161.854 13.282 161.854 14.301C161.854 15.32 162.68 16.146 163.699 16.146Z" fill="white"/>
<circle cx="89.5" cy="22.5" r="22.5" fill="white"/>
<path d="M90.6165 25.301L77.1334 16.7206C76.4363 16.2596 75.9482 15.5433 75.7741 14.7259C75.5999 13.9086 75.7538 13.0555 76.2025 12.3505C76.6512 11.6455 77.3588 11.1448 78.173 10.9564C78.9872 10.768 79.8428 10.9069 80.5556 11.3431L90.4474 17.6377L99.329 11.4205C100.022 10.9509 100.872 10.7728 101.695 10.9245C102.518 11.0763 103.249 11.5457 103.729 12.2315C104.208 12.9173 104.399 13.7643 104.26 14.5897C104.121 15.4151 103.662 16.1525 102.984 16.6428L90.6165 25.301Z" fill="#EA4435"/>
<path d="M102.219 33.157H97.9688V14.032C97.9688 13.1866 98.3046 12.3759 98.9023 11.7781C99.5001 11.1803 100.311 10.8445 101.156 10.8445C102.002 10.8445 102.812 11.1803 103.41 11.7781C104.008 12.3759 104.344 13.1866 104.344 14.032V31.032C104.344 31.5956 104.12 32.1361 103.721 32.5346C103.323 32.9331 102.782 33.157 102.219 33.157Z" fill="#00AC47"/>
<path d="M104.298 13.5697C104.288 13.506 104.289 13.4408 104.276 13.3772C104.255 13.2797 104.217 13.1896 104.188 13.0954C104.16 12.9877 104.126 12.8815 104.087 12.7774C104.065 12.7269 104.033 12.6826 104.008 12.6336C103.942 12.4919 103.866 12.3554 103.78 12.225C103.737 12.1633 103.684 12.1107 103.637 12.0523C103.556 11.9461 103.469 11.845 103.376 11.7496C103.305 11.6808 103.225 11.6233 103.148 11.5614C103.066 11.4914 102.981 11.4255 102.893 11.3641C102.809 11.309 102.717 11.2666 102.628 11.2197C102.534 11.1707 102.442 11.1174 102.344 11.0783C102.249 11.0402 102.149 11.016 102.05 10.987C101.951 10.958 101.853 10.9232 101.752 10.9044C101.626 10.8843 101.499 10.8715 101.372 10.8662C101.292 10.8606 101.212 10.8464 101.131 10.8471C100.981 10.8514 100.831 10.8665 100.683 10.8922C100.623 10.9011 100.563 10.9004 100.503 10.9127C100.303 10.974 100.103 11.037 99.9034 11.1019C99.8486 11.1252 99.8007 11.16 99.7477 11.1863C99.2081 11.4381 98.7531 11.8407 98.4374 12.3456C98.1218 12.8505 97.9592 13.436 97.9692 14.0313V20.1534L102.984 16.6426C103.477 16.3121 103.863 15.8459 104.096 15.3005C104.329 14.7551 104.399 14.1539 104.297 13.5695L104.298 13.5697Z" fill="#FFBA00"/>
<path d="M78.8438 10.8438C79.6891 10.8438 80.4999 11.1796 81.0977 11.7773C81.6954 12.3751 82.0312 13.1859 82.0312 14.0312V33.1562H77.7812C77.2177 33.1562 76.6772 32.9324 76.2786 32.5339C75.8801 32.1353 75.6562 31.5948 75.6562 31.0312V14.0312C75.6562 13.1859 75.9921 12.3751 76.5898 11.7773C77.1876 11.1796 77.9984 10.8438 78.8438 10.8438Z" fill="#4285F4"/>
<path d="M75.7034 13.5697C75.7127 13.5059 75.712 13.4408 75.7252 13.3771C75.7456 13.2796 75.7836 13.1895 75.8127 13.0954C75.8409 12.9877 75.8749 12.8815 75.9145 12.7775C75.9357 12.727 75.9685 12.6827 75.9927 12.6336C76.0587 12.4919 76.1352 12.3553 76.2215 12.225C76.264 12.1632 76.3172 12.1106 76.3641 12.0522C76.4447 11.946 76.5318 11.8449 76.6249 11.7495C76.6955 11.6808 76.7761 11.6233 76.853 11.5613C76.9346 11.4913 77.0197 11.4255 77.108 11.364C77.1922 11.309 77.2845 11.2666 77.3736 11.2196C77.4657 11.1675 77.5604 11.1201 77.6573 11.0775C77.7519 11.0394 77.8526 11.0152 77.9512 10.9862C78.0498 10.9572 78.1481 10.9225 78.2494 10.9036C78.375 10.8835 78.5017 10.8707 78.6287 10.8654C78.7095 10.8598 78.7893 10.8456 78.8702 10.8463C79.0206 10.8506 79.1704 10.8657 79.3185 10.8914C79.3783 10.9004 79.4386 10.8996 79.4981 10.9119C79.6009 10.9381 79.7024 10.9696 79.802 11.0063C79.9021 11.0329 80.0009 11.0645 80.0979 11.1011C80.1525 11.1244 80.2004 11.1592 80.2535 11.1855C80.3912 11.2502 80.5241 11.3248 80.6511 11.4087C81.0768 11.7009 81.4249 12.0924 81.6655 12.5494C81.906 13.0063 82.0317 13.5149 82.0317 14.0312V20.1533L77.0167 16.6427C76.5243 16.3121 76.1383 15.846 75.9052 15.3006C75.6721 14.7552 75.602 14.154 75.7034 13.5697Z" fill="#C52528"/>
<rect width="45" height="45" rx="22.5" fill="#419FD9"/>
<rect width="45" height="45" rx="22.5" fill="url(#paint1_linear_83_781)"/>
<path d="M10.1132 22.004C16.6563 19.0934 21.0193 17.1745 23.2024 16.2474C29.4356 13.6003 30.7308 13.1405 31.575 13.1251C31.7606 13.122 32.1758 13.169 32.4447 13.3917C32.6718 13.5799 32.7342 13.834 32.7641 14.0124C32.794 14.1907 32.8313 14.597 32.8017 14.9145C32.4639 18.5381 31.0023 27.3318 30.2588 31.3903C29.9442 33.1076 29.3246 33.6834 28.7249 33.7398C27.4215 33.8622 26.4317 32.8603 25.1693 32.0154C23.1939 30.6932 22.0779 29.8702 20.1604 28.58C17.9444 27.089 19.3809 26.2696 20.6438 24.9303C20.9743 24.5798 26.7172 19.2464 26.8283 18.7626C26.8422 18.7021 26.8551 18.4766 26.7239 18.3575C26.5927 18.2384 26.399 18.2791 26.2592 18.3115C26.0611 18.3574 22.9053 20.4871 16.7919 24.7006C15.8961 25.3286 15.0848 25.6346 14.3578 25.6185C13.5564 25.6009 12.0149 25.1559 10.8689 24.7755C9.46327 24.309 8.34613 24.0624 8.44341 23.2701C8.49407 22.8574 9.05066 22.4354 10.1132 22.004Z" fill="white"/>
<defs>
<linearGradient id="paint0_linear_83_781" x1="139.59" y1="38.4099" x2="171.41" y2="6.59009" gradientUnits="userSpaceOnUse">
<stop stop-color="#FFD521"/>
<stop offset="0.0551048" stop-color="#FFD020"/>
<stop offset="0.1241" stop-color="#FEC01E"/>
<stop offset="0.2004" stop-color="#FCA71B"/>
<stop offset="0.2821" stop-color="#FA8316"/>
<stop offset="0.3681" stop-color="#F85510"/>
<stop offset="0.4563" stop-color="#F51E09"/>
<stop offset="0.5" stop-color="#F30005"/>
<stop offset="0.5035" stop-color="#F20007"/>
<stop offset="0.5966" stop-color="#E1003B"/>
<stop offset="0.6879" stop-color="#D30067"/>
<stop offset="0.7757" stop-color="#C70088"/>
<stop offset="0.8589" stop-color="#BF00A0"/>
<stop offset="0.9357" stop-color="#BB00AF"/>
<stop offset="1" stop-color="#B900B4"/>
</linearGradient>
<linearGradient id="paint1_linear_83_781" x1="22.5" y1="0" x2="22.5" y2="44.6661" gradientUnits="userSpaceOnUse">
<stop stop-color="#2AABEE"/>
<stop offset="1" stop-color="#229ED9"/>
</linearGradient>
</defs>
</svg>
