<svg width="188" height="34" viewBox="0 0 188 34" fill="none" xmlns="http://www.w3.org/2000/svg">
<path d="M64.4426 20.781C64.1521 21.7522 63.625 22.6155 62.8613 23.3708C62.106 24.1262 61.1846 24.7114 60.0972 25.1265C59.0098 25.5415 57.8518 25.749 56.6233 25.749C54.9382 25.749 53.4067 25.3464 52.0288 24.5413C50.6509 23.7278 49.5718 22.6196 48.7915 21.2168C48.0112 19.814 47.6211 18.2659 47.6211 16.5725C47.6211 15.2942 47.8494 14.0906 48.3059 12.9617C48.7708 11.8245 49.3975 10.8491 50.186 10.0356C50.9829 9.22217 51.9375 8.57886 53.0498 8.10571C54.1704 7.63257 55.3616 7.396 56.6233 7.396C58.4329 7.396 60.0432 7.83179 61.4543 8.70337C62.8738 9.56665 63.8035 10.679 64.2434 12.0403L60.8816 13.6465C60.5496 12.8579 60.0059 12.2312 59.2505 11.7664C58.4951 11.3015 57.6194 11.0691 56.6233 11.0691C55.1125 11.0691 53.8799 11.5879 52.9253 12.6255C51.9707 13.6631 51.4934 14.9788 51.4934 16.5725C51.4934 18.158 51.9707 19.4736 52.9253 20.5195C53.8882 21.5654 55.1208 22.0884 56.6233 22.0884C57.6858 22.0884 58.6072 21.8269 59.3875 21.304C60.1677 20.781 60.699 20.0796 60.9812 19.1997L64.4426 20.781Z" fill="url(#paint0_linear_83_604)"/>
<path d="M75.1755 12.9741H78.7739V25.5H75.1755V24.0183C74.8684 24.533 74.3704 24.9521 73.6814 25.2759C73.0007 25.5913 72.2661 25.749 71.4775 25.749C70.4067 25.749 69.4231 25.4585 68.5266 24.8774C67.6301 24.2964 66.9246 23.5078 66.4099 22.5117C65.8953 21.5073 65.6379 20.4116 65.6379 19.2246C65.6379 17.415 66.2024 15.8794 67.3313 14.6177C68.4685 13.356 69.8506 12.7251 71.4775 12.7251C72.2578 12.7251 72.9924 12.887 73.6814 13.2107C74.3704 13.5344 74.8684 13.9495 75.1755 14.4558V12.9741ZM72.2744 22.3374C72.8804 22.3374 73.4448 22.1921 73.9678 21.9016C74.499 21.6111 74.9016 21.2375 75.1755 20.781V17.718C74.9016 17.2449 74.499 16.8589 73.9678 16.5601C73.4448 16.2612 72.8804 16.1118 72.2744 16.1118C71.3945 16.1118 70.6558 16.4106 70.0581 17.0083C69.4604 17.5977 69.1616 18.3364 69.1616 19.2246C69.1616 20.1128 69.4604 20.8557 70.0581 21.4534C70.6558 22.0427 71.3945 22.3374 72.2744 22.3374Z" fill="url(#paint1_linear_83_604)"/>
<path d="M87.9006 12.7251C88.5398 12.7251 89.0503 12.7998 89.4321 12.9492L89.2205 16.3235C88.6892 16.1326 88.1538 16.0371 87.6143 16.0371C87.166 16.0371 86.668 16.2114 86.1201 16.5601C85.5806 16.9004 85.1697 17.3569 84.8875 17.9297V25.5H81.2891V12.9741H84.8875V14.4558C85.178 13.9412 85.6138 13.5261 86.1948 13.2107C86.7842 12.887 87.3528 12.7251 87.9006 12.7251Z" fill="url(#paint2_linear_83_604)"/>
<path d="M102.244 18.6892C102.244 19.1956 102.211 19.6646 102.145 20.0962H93.1426C93.3086 20.9429 93.6697 21.5903 94.2258 22.0386C94.782 22.4785 95.4917 22.6985 96.355 22.6985C96.9194 22.6985 97.459 22.5781 97.9736 22.3374C98.4966 22.0967 98.866 21.7896 99.0818 21.416L101.883 23.1343C101.427 23.9644 100.705 24.6077 99.7168 25.0642C98.729 25.5208 97.5835 25.749 96.2803 25.749C94.4375 25.749 92.877 25.1182 91.5986 23.8564C90.3286 22.5864 89.6936 21.0259 89.6936 19.1748C89.6936 17.3569 90.3203 15.8296 91.5737 14.5928C92.8354 13.3477 94.3794 12.7251 96.2056 12.7251C97.8989 12.7251 99.3267 13.302 100.489 14.4558C101.659 15.6096 102.244 17.0208 102.244 18.6892ZM93.1924 17.8052H98.646C98.5713 17.1826 98.2808 16.6638 97.7744 16.2488C97.2681 15.8337 96.6829 15.6262 96.0188 15.6262C95.2717 15.6262 94.6575 15.8171 94.176 16.199C93.6946 16.5808 93.3667 17.1162 93.1924 17.8052Z" fill="url(#paint3_linear_83_604)"/>
<path d="M116.14 18.6892C116.14 19.1956 116.107 19.6646 116.04 20.0962H107.038C107.204 20.9429 107.565 21.5903 108.121 22.0386C108.677 22.4785 109.387 22.6985 110.25 22.6985C110.815 22.6985 111.354 22.5781 111.869 22.3374C112.392 22.0967 112.761 21.7896 112.977 21.416L115.779 23.1343C115.322 23.9644 114.6 24.6077 113.612 25.0642C112.625 25.5208 111.479 25.749 110.176 25.749C108.333 25.749 106.772 25.1182 105.494 23.8564C104.224 22.5864 103.589 21.0259 103.589 19.1748C103.589 17.3569 104.216 15.8296 105.469 14.5928C106.731 13.3477 108.275 12.7251 110.101 12.7251C111.794 12.7251 113.222 13.302 114.384 14.4558C115.555 15.6096 116.14 17.0208 116.14 18.6892ZM107.088 17.8052H112.542C112.467 17.1826 112.176 16.6638 111.67 16.2488C111.164 15.8337 110.578 15.6262 109.914 15.6262C109.167 15.6262 108.553 15.8171 108.072 16.199C107.59 16.5808 107.262 17.1162 107.088 17.8052Z" fill="url(#paint4_linear_83_604)"/>
<path d="M124.756 12.7251C125.395 12.7251 125.906 12.7998 126.288 12.9492L126.076 16.3235C125.545 16.1326 125.009 16.0371 124.47 16.0371C124.021 16.0371 123.523 16.2114 122.976 16.5601C122.436 16.9004 122.025 17.3569 121.743 17.9297V25.5H118.145V12.9741H121.743V14.4558C122.033 13.9412 122.469 13.5261 123.05 13.2107C123.64 12.887 124.208 12.7251 124.756 12.7251Z" fill="url(#paint5_linear_83_604)"/>
<path d="M146.321 20.781C146.031 21.7522 145.503 22.6155 144.74 23.3708C143.984 24.1262 143.063 24.7114 141.976 25.1265C140.888 25.5415 139.73 25.749 138.502 25.749C136.817 25.749 135.285 25.3464 133.907 24.5413C132.529 23.7278 131.45 22.6196 130.67 21.2168C129.89 19.814 129.5 18.2659 129.5 16.5725C129.5 15.2942 129.728 14.0906 130.184 12.9617C130.649 11.8245 131.276 10.8491 132.064 10.0356C132.861 9.22217 133.816 8.57886 134.928 8.10571C136.049 7.63257 137.24 7.396 138.502 7.396C140.311 7.396 141.922 7.83179 143.333 8.70337C144.752 9.56665 145.682 10.679 146.122 12.0403L142.76 13.6465C142.428 12.8579 141.884 12.2312 141.129 11.7664C140.374 11.3015 139.498 11.0691 138.502 11.0691C136.991 11.0691 135.758 11.5879 134.804 12.6255C133.849 13.6631 133.372 14.9788 133.372 16.5725C133.372 18.158 133.849 19.4736 134.804 20.5195C135.767 21.5654 136.999 22.0884 138.502 22.0884C139.564 22.0884 140.486 21.8269 141.266 21.304C142.046 20.781 142.577 20.0796 142.86 19.1997L146.321 20.781Z" fill="url(#paint6_linear_83_604)"/>
<path d="M157.054 12.9741H160.652V25.5H157.054V24.0183C156.747 24.533 156.249 24.9521 155.56 25.2759C154.879 25.5913 154.145 25.749 153.356 25.749C152.285 25.749 151.302 25.4585 150.405 24.8774C149.509 24.2964 148.803 23.5078 148.288 22.5117C147.774 21.5073 147.516 20.4116 147.516 19.2246C147.516 17.415 148.081 15.8794 149.21 14.6177C150.347 13.356 151.729 12.7251 153.356 12.7251C154.136 12.7251 154.871 12.887 155.56 13.2107C156.249 13.5344 156.747 13.9495 157.054 14.4558V12.9741ZM154.153 22.3374C154.759 22.3374 155.323 22.1921 155.846 21.9016C156.377 21.6111 156.78 21.2375 157.054 20.781V17.718C156.78 17.2449 156.377 16.8589 155.846 16.5601C155.323 16.2612 154.759 16.1118 154.153 16.1118C153.273 16.1118 152.534 16.4106 151.937 17.0083C151.339 17.5977 151.04 18.3364 151.04 19.2246C151.04 20.1128 151.339 20.8557 151.937 21.4534C152.534 22.0427 153.273 22.3374 154.153 22.3374Z" fill="url(#paint7_linear_83_604)"/>
<path d="M170.464 12.7251C171.535 12.7251 172.514 13.0156 173.402 13.5967C174.299 14.1694 175 14.9539 175.507 15.95C176.021 16.946 176.279 18.0376 176.279 19.2246C176.279 20.4116 176.021 21.5073 175.507 22.5117C175 23.5078 174.299 24.2964 173.402 24.8774C172.514 25.4585 171.535 25.749 170.464 25.749C169.675 25.749 168.937 25.5913 168.248 25.2759C167.567 24.9521 167.073 24.533 166.766 24.0183V29.6338H163.167V12.9741H166.766V14.4558C167.073 13.9412 167.567 13.5261 168.248 13.2107C168.937 12.887 169.675 12.7251 170.464 12.7251ZM169.679 22.3374C170.551 22.3374 171.281 22.0427 171.871 21.4534C172.46 20.8557 172.755 20.1128 172.755 19.2246C172.755 18.3447 172.456 17.606 171.858 17.0083C171.269 16.4106 170.543 16.1118 169.679 16.1118C169.073 16.1118 168.505 16.2612 167.974 16.5601C167.442 16.8506 167.04 17.2283 166.766 17.6931V20.7561C167.04 21.2292 167.438 21.6111 167.961 21.9016C168.484 22.1921 169.057 22.3374 169.679 22.3374Z" fill="url(#paint8_linear_83_604)"/>
<path d="M182.99 25.749C180.715 25.749 178.844 25.2261 177.374 24.1802L178.445 21.6775C179.624 22.5574 181.035 22.9973 182.678 22.9973C183.235 22.9973 183.679 22.9019 184.011 22.7109C184.351 22.52 184.521 22.2751 184.521 21.9763C184.521 21.719 184.393 21.5073 184.135 21.3413C183.886 21.167 183.562 21.03 183.164 20.9304C182.766 20.8308 182.326 20.7312 181.844 20.6316C181.363 20.5237 180.881 20.3867 180.4 20.2207C179.918 20.0464 179.479 19.8347 179.08 19.5857C178.682 19.3284 178.354 18.9714 178.096 18.5149C177.847 18.05 177.719 17.5063 177.71 16.8838C177.694 15.7051 178.159 14.7173 179.105 13.9204C180.051 13.1235 181.259 12.7251 182.728 12.7251C184.712 12.7251 186.302 13.2024 187.497 14.157L186.476 16.7593C185.978 16.3857 185.368 16.0745 184.646 15.8254C183.932 15.5764 183.243 15.4519 182.579 15.4519C182.122 15.4519 181.753 15.5474 181.471 15.7383C181.188 15.9292 181.047 16.1658 181.047 16.448C181.047 16.6638 181.147 16.8547 181.346 17.0208C181.545 17.1785 181.803 17.3071 182.118 17.4067C182.442 17.5063 182.807 17.6184 183.214 17.7429C183.629 17.8591 184.048 17.9753 184.471 18.0916C184.895 18.2078 185.31 18.3696 185.717 18.5771C186.132 18.7847 186.501 19.0212 186.825 19.2869C187.148 19.5442 187.41 19.8845 187.609 20.3079C187.817 20.7312 187.925 21.2126 187.933 21.7522C187.933 22.9143 187.468 23.873 186.538 24.6284C185.617 25.3755 184.434 25.749 182.99 25.749Z" fill="url(#paint9_linear_83_604)"/>
<path fill-rule="evenodd" clip-rule="evenodd" d="M32.0152 25.0216C33.2557 22.647 31.519 19.8117 28.8609 19.8117C27.5496 19.8117 26.3801 20.5205 25.7776 21.6901C24.0764 24.8089 20.8158 26.9354 17.0236 26.9354C11.3529 26.9354 6.74557 22.1154 7.13543 16.3384C7.4544 11.5539 11.2112 7.65533 15.9958 7.15915C20.2133 6.73385 23.9701 8.96664 25.7776 12.369C26.3801 13.5031 27.5851 14.1765 28.8609 14.1765C31.5545 14.1765 33.2557 11.3058 31.9798 8.93121C29.109 3.61502 23.4739 0 17.0236 0C7.38352 0 -0.342689 7.93885 0.0117242 17.6498C0.366137 26.4747 7.52528 33.6338 16.3502 33.9882C23.1195 34.2363 29.0381 30.5504 32.0152 25.0216ZM22.6942 16.9765C22.6942 20.1083 20.1554 22.6471 17.0236 22.6471C13.8918 22.6471 11.353 20.1083 11.353 16.9765C11.353 13.8447 13.8918 11.3059 17.0236 11.3059C20.1554 11.3059 22.6942 13.8447 22.6942 16.9765Z" fill="url(#paint10_linear_83_604)"/>
<defs>
<linearGradient id="paint0_linear_83_604" x1="47.6211" y1="18.5149" x2="187.924" y2="17.3195" gradientUnits="userSpaceOnUse">
<stop stop-color="#3000D6"/>
<stop offset="1" stop-color="#3DD0F0"/>
</linearGradient>
<linearGradient id="paint1_linear_83_604" x1="47.6211" y1="18.5149" x2="187.924" y2="17.3195" gradientUnits="userSpaceOnUse">
<stop stop-color="#3000D6"/>
<stop offset="1" stop-color="#3DD0F0"/>
</linearGradient>
<linearGradient id="paint2_linear_83_604" x1="47.6211" y1="18.5149" x2="187.924" y2="17.3195" gradientUnits="userSpaceOnUse">
<stop stop-color="#3000D6"/>
<stop offset="1" stop-color="#3DD0F0"/>
</linearGradient>
<linearGradient id="paint3_linear_83_604" x1="47.6211" y1="18.5149" x2="187.924" y2="17.3195" gradientUnits="userSpaceOnUse">
<stop stop-color="#3000D6"/>
<stop offset="1" stop-color="#3DD0F0"/>
</linearGradient>
<linearGradient id="paint4_linear_83_604" x1="47.6211" y1="18.5149" x2="187.924" y2="17.3195" gradientUnits="userSpaceOnUse">
<stop stop-color="#3000D6"/>
<stop offset="1" stop-color="#3DD0F0"/>
</linearGradient>
<linearGradient id="paint5_linear_83_604" x1="47.6211" y1="18.5149" x2="187.924" y2="17.3195" gradientUnits="userSpaceOnUse">
<stop stop-color="#3000D6"/>
<stop offset="1" stop-color="#3DD0F0"/>
</linearGradient>
<linearGradient id="paint6_linear_83_604" x1="47.6211" y1="18.5149" x2="187.924" y2="17.3195" gradientUnits="userSpaceOnUse">
<stop stop-color="#3000D6"/>
<stop offset="1" stop-color="#3DD0F0"/>
</linearGradient>
<linearGradient id="paint7_linear_83_604" x1="47.6211" y1="18.5149" x2="187.924" y2="17.3195" gradientUnits="userSpaceOnUse">
<stop stop-color="#3000D6"/>
<stop offset="1" stop-color="#3DD0F0"/>
</linearGradient>
<linearGradient id="paint8_linear_83_604" x1="47.6211" y1="18.5149" x2="187.924" y2="17.3195" gradientUnits="userSpaceOnUse">
<stop stop-color="#3000D6"/>
<stop offset="1" stop-color="#3DD0F0"/>
</linearGradient>
<linearGradient id="paint9_linear_83_604" x1="47.6211" y1="18.5149" x2="187.924" y2="17.3195" gradientUnits="userSpaceOnUse">
<stop stop-color="#3000D6"/>
<stop offset="1" stop-color="#3DD0F0"/>
</linearGradient>
<linearGradient id="paint10_linear_83_604" x1="-4.31386e-09" y1="17" x2="32.4241" y2="16.9582" gradientUnits="userSpaceOnUse">
<stop stop-color="#3000D6"/>
<stop offset="1" stop-color="#3DD0F0"/>
</linearGradient>
</defs>
</svg>
