<svg width="22" height="22" viewBox="0 0 22 22" fill="none" xmlns="http://www.w3.org/2000/svg">
<path d="M2.56689 4.76636L6.41689 7.33302L10.2541 1.96136C10.3388 1.84253 10.4508 1.74567 10.5806 1.67884C10.7104 1.61201 10.8542 1.57715 11.0002 1.57715C11.1462 1.57715 11.2901 1.61201 11.4199 1.67884C11.5496 1.74567 11.6616 1.84253 11.7464 1.96136L15.5836 7.33302L19.4336 4.76636C19.5793 4.66941 19.7497 4.61621 19.9247 4.61303C20.0996 4.60985 20.2719 4.65683 20.421 4.74841C20.5701 4.83999 20.6899 4.97235 20.7662 5.12985C20.8426 5.28734 20.8722 5.46339 20.8516 5.63719L19.3456 18.4403C19.3193 18.6633 19.2121 18.8688 19.0443 19.018C18.8765 19.1672 18.6598 19.2497 18.4353 19.2497H3.56514C3.34061 19.2497 3.12391 19.1672 2.95613 19.018C2.78835 18.8688 2.68116 18.6633 2.65489 18.4403L1.1488 5.63627C1.12845 5.46255 1.15823 5.28663 1.23462 5.12928C1.31101 4.97193 1.43083 4.83972 1.57992 4.74826C1.72902 4.6568 1.90117 4.6099 2.07605 4.61311C2.25093 4.61632 2.42125 4.66949 2.56689 4.76636Z" fill="#DAC60F"/>
</svg>
