<svg width="53" height="53" viewBox="0 0 53 53" fill="none" xmlns="http://www.w3.org/2000/svg">
<g filter="url(#filter0_d_83_788)">
<circle cx="26.5" cy="22.5" r="22.5" fill="white"/>
<path d="M27.6165 25.301L14.1334 16.7206C13.4363 16.2596 12.9482 15.5433 12.7741 14.7259C12.5999 13.9086 12.7538 13.0555 13.2025 12.3505C13.6512 11.6455 14.3588 11.1448 15.173 10.9564C15.9872 10.768 16.8428 10.9069 17.5556 11.3431L27.4474 17.6377L36.329 11.4205C37.0219 10.9509 37.8718 10.7728 38.6949 10.9245C39.5181 11.0763 40.2486 11.5457 40.7285 12.2315C41.2085 12.9173 41.3994 13.7643 41.2601 14.5897C41.1208 15.4151 40.6624 16.1525 39.984 16.6428L27.6165 25.301Z" fill="#EA4435"/>
<path d="M39.2188 33.157H34.9688V14.032C34.9688 13.1866 35.3046 12.3759 35.9023 11.7781C36.5001 11.1803 37.3109 10.8445 38.1562 10.8445C39.0016 10.8445 39.8124 11.1803 40.4102 11.7781C41.0079 12.3759 41.3438 13.1866 41.3438 14.032V31.032C41.3438 31.5956 41.1199 32.1361 40.7214 32.5346C40.3228 32.9331 39.7823 33.157 39.2188 33.157Z" fill="#00AC47"/>
<path d="M41.2976 13.5697C41.2883 13.506 41.289 13.4408 41.2758 13.3772C41.2554 13.2797 41.2174 13.1896 41.1883 13.0954C41.1601 12.9877 41.1261 12.8815 41.0865 12.7774C41.0653 12.7269 41.0326 12.6826 41.0084 12.6336C40.9423 12.4919 40.8658 12.3554 40.7796 12.225C40.7371 12.1633 40.6839 12.1107 40.637 12.0523C40.5564 11.9461 40.4693 11.845 40.3761 11.7496C40.3055 11.6808 40.2249 11.6233 40.1481 11.5614C40.0665 11.4914 39.9814 11.4255 39.8931 11.3641C39.8089 11.309 39.7166 11.2666 39.6275 11.2197C39.5336 11.1707 39.4416 11.1174 39.3438 11.0783C39.2494 11.0402 39.1486 11.016 39.0499 10.987C38.9512 10.958 38.853 10.9232 38.7517 10.9044C38.6261 10.8843 38.4994 10.8715 38.3724 10.8662C38.2917 10.8606 38.2118 10.8464 38.1309 10.8471C37.9806 10.8514 37.8308 10.8665 37.6826 10.8922C37.6228 10.9011 37.5625 10.9004 37.5031 10.9127C37.3027 10.974 37.1027 11.037 36.9034 11.1019C36.8486 11.1252 36.8007 11.16 36.7477 11.1863C36.2081 11.4381 35.7531 11.8407 35.4374 12.3456C35.1218 12.8505 34.9592 13.436 34.9692 14.0313V20.1534L39.9842 16.6426C40.4767 16.3121 40.8628 15.8459 41.0958 15.3005C41.3289 14.7551 41.3989 14.1539 41.2973 13.5695L41.2976 13.5697Z" fill="#FFBA00"/>
<path d="M15.8438 10.8438C16.6891 10.8438 17.4999 11.1796 18.0977 11.7773C18.6954 12.3751 19.0312 13.1859 19.0312 14.0312V33.1562H14.7812C14.2177 33.1562 13.6772 32.9324 13.2786 32.5339C12.8801 32.1353 12.6562 31.5948 12.6562 31.0312V14.0312C12.6562 13.1859 12.9921 12.3751 13.5898 11.7773C14.1876 11.1796 14.9984 10.8438 15.8438 10.8438Z" fill="#4285F4"/>
<path d="M12.7034 13.5697C12.7127 13.5059 12.712 13.4408 12.7252 13.3771C12.7456 13.2796 12.7836 13.1895 12.8127 13.0954C12.8409 12.9877 12.8749 12.8815 12.9145 12.7775C12.9357 12.727 12.9685 12.6827 12.9927 12.6336C13.0587 12.4919 13.1352 12.3553 13.2215 12.225C13.264 12.1632 13.3172 12.1106 13.3641 12.0522C13.4447 11.946 13.5318 11.8449 13.6249 11.7495C13.6955 11.6808 13.7761 11.6233 13.853 11.5613C13.9346 11.4913 14.0197 11.4255 14.108 11.364C14.1922 11.309 14.2845 11.2666 14.3736 11.2196C14.4657 11.1675 14.5604 11.1201 14.6573 11.0775C14.7519 11.0394 14.8526 11.0152 14.9512 10.9862C15.0498 10.9572 15.1481 10.9225 15.2494 10.9036C15.375 10.8835 15.5017 10.8707 15.6287 10.8654C15.7095 10.8598 15.7893 10.8456 15.8702 10.8463C16.0206 10.8506 16.1704 10.8657 16.3185 10.8914C16.3783 10.9004 16.4386 10.8996 16.4981 10.9119C16.6009 10.9381 16.7024 10.9696 16.802 11.0063C16.9021 11.0329 17.0009 11.0645 17.0979 11.1011C17.1525 11.1244 17.2004 11.1592 17.2535 11.1855C17.3912 11.2502 17.5241 11.3248 17.6511 11.4087C18.0768 11.7009 18.4249 12.0924 18.6655 12.5494C18.906 13.0063 19.0317 13.5149 19.0317 14.0312V20.1533L14.0167 16.6427C13.5243 16.3121 13.1383 15.846 12.9052 15.3006C12.6721 14.7552 12.602 14.154 12.7034 13.5697Z" fill="#C52528"/>
</g>
<defs>
<filter id="filter0_d_83_788" x="0" y="0" width="53" height="53" filterUnits="userSpaceOnUse" color-interpolation-filters="sRGB">
<feFlood flood-opacity="0" result="BackgroundImageFix"/>
<feColorMatrix in="SourceAlpha" type="matrix" values="0 0 0 0 0 0 0 0 0 0 0 0 0 0 0 0 0 0 127 0" result="hardAlpha"/>
<feOffset dy="4"/>
<feGaussianBlur stdDeviation="2"/>
<feComposite in2="hardAlpha" operator="out"/>
<feColorMatrix type="matrix" values="0 0 0 0 0 0 0 0 0 0 0 0 0 0 0 0 0 0 0.25 0"/>
<feBlend mode="normal" in2="BackgroundImageFix" result="effect1_dropShadow_83_788"/>
<feBlend mode="normal" in="SourceGraphic" in2="effect1_dropShadow_83_788" result="shape"/>
</filter>
</defs>
</svg>
