<svg width="245" height="45" viewBox="0 0 245 45" fill="none" xmlns="http://www.w3.org/2000/svg">
<rect x="133.199" width="45" height="45" rx="22.5" fill="#FF0000"/>
<path fill-rule="evenodd" clip-rule="evenodd" d="M166.704 13.2563C167.908 13.5806 168.858 14.5305 169.182 15.7352C169.785 17.936 169.762 22.5231 169.762 22.5231C169.762 22.5231 169.762 27.087 169.182 29.2879C168.858 30.4926 167.908 31.4425 166.704 31.7668C164.503 32.346 155.699 32.346 155.699 32.346C155.699 32.346 146.919 32.346 144.695 31.7436C143.49 31.4193 142.54 30.4694 142.216 29.2648C141.637 27.087 141.637 22.5 141.637 22.5C141.637 22.5 141.637 17.936 142.216 15.7352C142.54 14.5305 143.513 13.5574 144.695 13.2331C146.896 12.6539 155.699 12.6539 155.699 12.6539C155.699 12.6539 164.503 12.6539 166.704 13.2563ZM160.217 22.5L152.896 26.7164V18.2835L160.217 22.5Z" fill="white"/>
<rect x="66.5996" width="45" height="45" rx="22.5" fill="#5181B8"/>
<path fill-rule="evenodd" clip-rule="evenodd" d="M103.411 15.5012C103.62 14.8059 103.411 14.2948 102.419 14.2948H99.1367C98.3021 14.2948 97.9177 14.7362 97.709 15.2231C97.709 15.2231 96.0399 19.2912 93.6754 21.9337C92.9105 22.6986 92.5628 22.9417 92.1455 22.9417C91.9369 22.9417 91.635 22.6986 91.635 22.0033V15.5012C91.635 14.6666 91.3928 14.2948 90.6972 14.2948H85.5398C85.0184 14.2948 84.7047 14.6821 84.7047 15.0492C84.7047 15.8404 85.8867 16.0228 86.0086 18.248V23.0812C86.0086 24.1408 85.8173 24.3331 85.4001 24.3331C84.2875 24.3331 81.5812 20.2465 79.9758 15.5708C79.6612 14.6619 79.3457 14.2948 78.5069 14.2948H75.2249C74.2872 14.2948 74.0996 14.7362 74.0996 15.2231C74.0996 16.0924 75.2124 20.404 79.2805 26.1063C81.9929 30.0002 85.8136 32.1115 89.2907 32.1115C91.3771 32.1115 91.635 31.6426 91.635 30.835V27.8917C91.635 26.954 91.8326 26.7669 92.493 26.7669C92.9801 26.7669 93.8144 27.0103 95.7619 28.8878C97.9871 31.1128 98.3537 32.1115 99.6056 32.1115H102.888C103.825 32.1115 104.294 31.6426 104.024 30.7173C103.728 29.7951 102.665 28.4574 101.255 26.8713C100.491 25.9671 99.343 24.9935 98.9956 24.5068C98.5087 23.8809 98.6477 23.6028 98.9956 23.0468C98.9956 23.0468 102.994 17.4139 103.411 15.5014V15.5012Z" fill="white"/>
<rect x="199.801" width="45" height="45" rx="22.5" fill="#1DA1F2"/>
<path d="M233.328 17.6367C233.328 17.8828 233.328 18.1289 233.328 18.3398C233.328 25.6172 227.773 34.0195 217.648 34.0195C214.52 34.0195 211.637 33.1055 209.176 31.5586C209.598 31.5938 210.055 31.6289 210.477 31.6289C213.043 31.6289 215.434 30.75 217.332 29.2734C214.906 29.2383 212.867 27.6211 212.199 25.4414C212.551 25.5117 212.867 25.5469 213.254 25.5469C213.746 25.5469 214.238 25.4766 214.695 25.3359C212.164 24.8438 210.266 22.6289 210.266 19.957C210.266 19.9219 210.266 19.9219 210.266 19.8867C211.004 20.3086 211.848 20.5547 212.762 20.5898C211.285 19.6055 210.301 17.918 210.301 15.9844C210.301 14.9648 210.582 14.0156 211.039 13.207C213.746 16.5469 217.824 18.7266 222.395 18.9727C222.289 18.5859 222.254 18.1289 222.254 17.707C222.254 14.6484 224.715 12.1875 227.773 12.1875C229.355 12.1875 230.797 12.8555 231.781 13.9102C233.047 13.6641 234.207 13.207 235.297 12.5742C234.875 13.875 233.996 14.9297 232.871 15.6328C233.996 15.4922 235.051 15.2109 236.035 14.7539C235.332 15.8789 234.418 16.8633 233.328 17.6367Z" fill="white"/>
<rect width="45" height="45" rx="22.5" fill="#419FD9"/>
<rect width="45" height="45" rx="22.5" fill="url(#paint0_linear_83_72)"/>
<path d="M10.1132 22.004C16.6563 19.0934 21.0193 17.1745 23.2024 16.2474C29.4356 13.6003 30.7308 13.1405 31.575 13.1251C31.7606 13.122 32.1758 13.169 32.4447 13.3917C32.6718 13.5799 32.7342 13.834 32.7641 14.0124C32.794 14.1907 32.8313 14.597 32.8017 14.9145C32.4639 18.5381 31.0023 27.3318 30.2588 31.3903C29.9442 33.1076 29.3246 33.6834 28.7249 33.7398C27.4215 33.8622 26.4317 32.8603 25.1693 32.0154C23.1939 30.6932 22.0779 29.8702 20.1604 28.58C17.9444 27.089 19.3809 26.2696 20.6438 24.9303C20.9743 24.5798 26.7172 19.2464 26.8283 18.7626C26.8422 18.7021 26.8551 18.4766 26.7239 18.3575C26.5927 18.2384 26.399 18.2791 26.2592 18.3115C26.0611 18.3574 22.9053 20.4871 16.7919 24.7006C15.8961 25.3286 15.0848 25.6346 14.3578 25.6185C13.5564 25.6009 12.0149 25.1559 10.8689 24.7755C9.46327 24.309 8.34613 24.0624 8.44341 23.2701C8.49407 22.8574 9.05066 22.4354 10.1132 22.004Z" fill="white"/>
<defs>
<linearGradient id="paint0_linear_83_72" x1="22.5" y1="0" x2="22.5" y2="44.6661" gradientUnits="userSpaceOnUse">
<stop stop-color="#2AABEE"/>
<stop offset="1" stop-color="#229ED9"/>
</linearGradient>
</defs>
</svg>
