<svg width="45" height="45" viewBox="0 0 45 45" fill="none" xmlns="http://www.w3.org/2000/svg">
<rect width="45" height="45" rx="22.5" fill="#419FD9"/>
<rect width="45" height="45" rx="22.5" fill="url(#paint0_linear_83_796)"/>
<path d="M10.1132 22.004C16.6563 19.0934 21.0193 17.1745 23.2024 16.2474C29.4356 13.6003 30.7308 13.1405 31.575 13.1251C31.7606 13.122 32.1758 13.169 32.4447 13.3917C32.6718 13.5799 32.7342 13.834 32.7641 14.0124C32.794 14.1907 32.8313 14.597 32.8017 14.9145C32.4639 18.5381 31.0023 27.3318 30.2588 31.3903C29.9442 33.1076 29.3246 33.6834 28.7249 33.7398C27.4215 33.8622 26.4317 32.8603 25.1693 32.0154C23.1939 30.6932 22.0779 29.8702 20.1604 28.58C17.9444 27.089 19.3809 26.2696 20.6438 24.9303C20.9743 24.5798 26.7172 19.2464 26.8283 18.7626C26.8422 18.7021 26.8551 18.4766 26.7239 18.3575C26.5927 18.2384 26.399 18.2791 26.2592 18.3115C26.0611 18.3574 22.9053 20.4871 16.7919 24.7006C15.8961 25.3286 15.0848 25.6346 14.3578 25.6185C13.5564 25.6009 12.0149 25.1559 10.8689 24.7755C9.46327 24.309 8.34613 24.0624 8.44341 23.2701C8.49407 22.8574 9.05066 22.4354 10.1132 22.004Z" fill="white"/>
<defs>
<linearGradient id="paint0_linear_83_796" x1="22.5" y1="0" x2="22.5" y2="44.6661" gradientUnits="userSpaceOnUse">
<stop stop-color="#2AABEE"/>
<stop offset="1" stop-color="#229ED9"/>
</linearGradient>
</defs>
</svg>
