<svg width="24" height="24" viewBox="0 0 24 24" fill="none" xmlns="http://www.w3.org/2000/svg">
<path d="M7.82898 16.7443H5.98154C5.88666 16.7443 5.79177 16.7052 5.73038 16.6327C5.66898 16.5601 5.6355 16.4652 5.64666 16.3703C5.73596 15.6392 5.79177 14.0262 5.8141 11.7099C5.8141 11.5257 5.9648 11.375 6.14898 11.375C6.33317 11.375 6.48387 11.5257 6.48387 11.7099C6.4727 13.1555 6.43922 15.0029 6.34991 16.069H7.8234C8.00759 16.069 8.15829 16.2197 8.15829 16.4038C8.15829 16.588 8.01317 16.7443 7.82898 16.7443Z" fill="url(#paint0_linear_83_453)"/>
<path d="M17.9385 16.7442H16.0966C15.9124 16.7442 15.7617 16.5935 15.7617 16.4093C15.7617 16.2251 15.9124 16.0744 16.0966 16.0744H17.5701C17.4975 15.2261 17.4529 13.7693 17.4361 11.7377C17.4361 11.5535 17.5813 11.4028 17.7654 11.3972C17.7654 11.3972 17.7654 11.3972 17.771 11.3972C17.9552 11.3972 18.1059 11.5479 18.1059 11.7265C18.1282 14.0372 18.184 15.6447 18.2733 16.3647C18.2845 16.4595 18.2566 16.5544 18.1896 16.627C18.1282 16.7051 18.0333 16.7442 17.9385 16.7442Z" fill="url(#paint1_linear_83_453)"/>
<path d="M13.0894 21.9068H10.8457C10.3824 21.9068 9.94706 21.7338 9.6066 21.4157L9.60102 21.4101C9.39451 21.2148 9.12102 21.1031 8.83637 21.1031L8.32288 21.0975C7.33497 21.0864 6.53125 20.2715 6.53125 19.2836V18.932C6.53125 16.945 8.14986 15.3264 10.1368 15.3264H10.4773C10.6615 15.3264 10.8122 15.4771 10.8122 15.6613C10.8122 15.8455 10.6615 15.9962 10.4773 15.9962H10.1368C8.51823 15.9962 7.20102 17.3134 7.20102 18.932V19.2836C7.20102 19.9031 7.70892 20.4166 8.32846 20.4278L8.84195 20.4334C9.29404 20.4389 9.72381 20.612 10.0587 20.9245L10.0643 20.9301C10.2764 21.131 10.5554 21.2371 10.8457 21.2371H13.0894C13.3796 21.2371 13.6587 21.1255 13.8708 20.9301C14.2057 20.6175 14.6466 20.4389 15.1099 20.4389H15.5954C16.2261 20.4389 16.7396 19.9255 16.7396 19.2948V18.9264C16.7396 17.3078 15.4224 15.9906 13.8038 15.9906H13.4578C13.2736 15.9906 13.1229 15.8399 13.1229 15.6557C13.1229 15.4715 13.2736 15.3208 13.4578 15.3208H13.8038C15.7908 15.3208 17.4094 16.9394 17.4094 18.9264V19.2948C17.4094 20.2938 16.5945 21.1087 15.5954 21.1087H15.1099C14.8196 21.1087 14.5406 21.2203 14.3285 21.4157C13.9936 21.7338 13.5526 21.9068 13.0894 21.9068Z" fill="#121331"/>
<path d="M11.9736 17.442C10.9689 17.442 10.1484 16.6215 10.1484 15.6168V14.082C10.1484 13.8978 10.2991 13.7471 10.4833 13.7471C10.6675 13.7471 10.8182 13.8978 10.8182 14.082V15.6168C10.8182 16.2531 11.3373 16.7722 11.9736 16.7722C12.6098 16.7722 13.1289 16.2531 13.1289 15.6168V14.082C13.1289 13.8978 13.2796 13.7471 13.4638 13.7471C13.648 13.7471 13.7987 13.8978 13.7987 14.082V15.6168C13.7931 16.6271 12.9782 17.442 11.9736 17.442Z" fill="#121331"/>
<path d="M14.9462 18.9768H13.456C13.2718 18.9768 13.1211 18.8261 13.1211 18.6419C13.1211 18.4577 13.2718 18.307 13.456 18.307H14.9462C15.1304 18.307 15.2811 18.4577 15.2811 18.6419C15.2811 18.8261 15.1304 18.9768 14.9462 18.9768Z" fill="url(#paint2_linear_83_453)"/>
<path d="M12.0174 13.0158C11.6937 13.0158 11.3755 12.9711 11.1132 12.8763C10.8565 12.7869 10.6221 12.6642 10.4211 12.519C10.2704 12.413 10.2369 12.2009 10.343 12.0502C10.449 11.8995 10.6611 11.866 10.8118 11.9721C10.9625 12.0781 11.1411 12.173 11.3365 12.24C11.7551 12.3907 12.3746 12.3572 12.7039 12.24C12.9216 12.1618 13.1058 12.0725 13.2621 11.9665C13.4127 11.8604 13.6248 11.8995 13.7253 12.0502C13.8258 12.2009 13.7923 12.413 13.6416 12.5135C13.4351 12.653 13.2007 12.7702 12.9272 12.8651C12.6648 12.9656 12.3411 13.0158 12.0174 13.0158Z" fill="#121331"/>
<path d="M6.15687 10.1916C5.97269 10.1916 5.82199 10.0409 5.82199 9.85673C5.82199 8.97487 5.81641 8.36091 5.81641 8.35533C5.81641 8.17114 5.96152 8.02045 6.15129 8.02045C6.15129 8.02045 6.15129 8.02045 6.15687 8.02045C6.34106 8.02045 6.49176 8.17114 6.49176 8.35533C6.49176 8.36091 6.49734 8.98045 6.49734 9.86231C6.49176 10.0409 6.34664 10.1916 6.15687 10.1916Z" fill="url(#paint3_linear_83_453)"/>
<path d="M17.7646 10.1693C17.5804 10.1693 17.4297 10.0186 17.4297 9.83446C17.4297 8.96376 17.4353 8.35539 17.4353 8.34981C17.4353 8.16562 17.586 8.02051 17.7702 8.02051C17.9543 8.02051 18.105 8.17121 18.105 8.36097C18.105 8.36655 18.0995 8.96935 18.0995 9.84004C18.0995 10.0186 17.9488 10.1693 17.7646 10.1693Z" fill="url(#paint4_linear_83_453)"/>
<path d="M16.5536 12.106C16.3694 12.106 16.2188 11.9553 16.2188 11.7711C16.2188 11.587 16.3694 11.4363 16.5536 11.4363L17.5136 11.4307C17.6308 11.4307 17.7481 11.3972 17.8541 11.3358C17.9546 11.2744 18.0383 11.1851 18.0941 11.0791C18.1946 10.8837 18.189 10.6549 18.0829 10.4651C17.9769 10.2753 17.7871 10.1525 17.5694 10.1358L17.2457 10.1246C17.0615 10.1191 16.9164 9.96277 16.922 9.77859C16.9276 9.5944 17.0839 9.44929 17.2681 9.45487L17.5974 9.46603C17.6029 9.46603 17.6029 9.46603 17.6085 9.46603C18.0494 9.49952 18.4457 9.7451 18.6634 10.1358C18.8811 10.5209 18.8922 10.9898 18.6913 11.386C18.5797 11.6037 18.4122 11.7823 18.2057 11.9107C17.9992 12.0391 17.7592 12.106 17.5192 12.106H16.5536Z" fill="#121331"/>
<path d="M7.44733 12.1061L6.48733 12.1005C6.24733 12.1005 6.00733 12.0336 5.80082 11.9052C5.59431 11.7768 5.42687 11.5982 5.31524 11.3805C5.11431 10.9843 5.12547 10.5154 5.34315 10.1303C5.56082 9.74519 5.9571 9.49403 6.39803 9.46054C6.40361 9.46054 6.40361 9.46054 6.40919 9.46054L6.71617 9.44937C6.90036 9.44379 7.05664 9.58891 7.06222 9.7731C7.0678 9.95728 6.92268 10.1136 6.7385 10.1191L6.4371 10.1303C6.21943 10.147 6.02966 10.2643 5.92361 10.4596C5.81198 10.655 5.81198 10.8782 5.91245 11.0736C5.96826 11.1796 6.0464 11.2689 6.15245 11.3303C6.25291 11.3917 6.37012 11.4252 6.48733 11.4252L7.44733 11.4308C7.63152 11.4308 7.78222 11.5815 7.78222 11.7657C7.78222 11.961 7.63152 12.1061 7.44733 12.1061Z" fill="#121331"/>
<path d="M11.9709 14.584C8.8565 14.584 6.32812 12.0501 6.32812 8.94125V8.24358C6.32812 8.05939 6.47882 7.90869 6.66301 7.90869C6.84719 7.90869 6.99789 8.05939 6.99789 8.24358V8.94125C6.99789 11.6817 9.23045 13.9143 11.9709 13.9143C14.7114 13.9143 16.9439 11.6817 16.9439 8.94125V8.24358C16.9439 8.05939 17.0946 7.90869 17.2788 7.90869C17.463 7.90869 17.6137 8.05939 17.6137 8.24358V8.94125C17.6137 12.0557 15.0853 14.584 11.9709 14.584Z" fill="#121331"/>
<path d="M17.7924 8.5786H14.2315C14.1031 8.5786 13.9859 8.50604 13.9301 8.39441L13.4947 7.50697L13.1822 8.36092C13.1319 8.49488 13.0092 8.5786 12.8696 8.5786H11.2566C11.1505 8.5786 11.0501 8.52837 10.9887 8.44465L10.704 8.05953L10.4082 8.45023C10.3468 8.53395 10.2464 8.58418 10.1403 8.58418H6.1552C5.97101 8.58418 5.82031 8.43348 5.82031 8.2493C5.82031 4.85581 8.5831 2.09302 11.9766 2.09302C15.3701 2.09302 18.1329 4.85581 18.1329 8.2493C18.1273 8.43348 17.9766 8.5786 17.7924 8.5786ZM14.4436 7.90883H17.4464C17.2733 5.03999 14.8845 2.7572 11.971 2.7572C9.05752 2.7572 6.66868 5.03999 6.49566 7.90883H9.97287L10.4417 7.30046C10.5031 7.21674 10.6036 7.16651 10.7096 7.16651C10.8157 7.16651 10.9161 7.21674 10.9775 7.30046L11.424 7.90883H12.6352L13.1375 6.53581C13.1822 6.40744 13.2994 6.32371 13.4333 6.31813C13.5673 6.31255 13.6901 6.38511 13.7515 6.50232L14.4436 7.90883Z" fill="url(#paint5_linear_83_453)"/>
<defs>
<linearGradient id="paint0_linear_83_453" x1="5.64453" y1="14.0597" x2="8.15832" y2="14.0581" gradientUnits="userSpaceOnUse">
<stop stop-color="#3000D6"/>
<stop offset="1" stop-color="#3DD0F0"/>
</linearGradient>
<linearGradient id="paint1_linear_83_453" x1="15.7617" y1="14.0707" x2="18.2758" y2="14.0691" gradientUnits="userSpaceOnUse">
<stop stop-color="#3000D6"/>
<stop offset="1" stop-color="#3DD0F0"/>
</linearGradient>
<linearGradient id="paint2_linear_83_453" x1="13.1211" y1="18.6419" x2="15.2811" y2="18.6325" gradientUnits="userSpaceOnUse">
<stop stop-color="#3000D6"/>
<stop offset="1" stop-color="#3DD0F0"/>
</linearGradient>
<linearGradient id="paint3_linear_83_453" x1="5.81641" y1="9.10603" x2="6.49734" y2="9.10574" gradientUnits="userSpaceOnUse">
<stop stop-color="#3000D6"/>
<stop offset="1" stop-color="#3DD0F0"/>
</linearGradient>
<linearGradient id="paint4_linear_83_453" x1="17.4297" y1="9.09493" x2="18.105" y2="9.09464" gradientUnits="userSpaceOnUse">
<stop stop-color="#3000D6"/>
<stop offset="1" stop-color="#3DD0F0"/>
</linearGradient>
<linearGradient id="paint5_linear_83_453" x1="5.82031" y1="5.3386" x2="18.1329" y2="5.30706" gradientUnits="userSpaceOnUse">
<stop stop-color="#3000D6"/>
<stop offset="1" stop-color="#3DD0F0"/>
</linearGradient>
</defs>
</svg>
