<svg width="24" height="24" viewBox="0 0 24 24" fill="none" xmlns="http://www.w3.org/2000/svg">
<path d="M11.9709 15.3712C8.8565 15.3712 6.32812 12.8373 6.32812 9.72844C6.32812 9.54425 6.47882 9.39355 6.66301 9.39355C6.84719 9.39355 6.99789 9.54425 6.99789 9.72844C6.99789 12.4689 9.23045 14.7015 11.9709 14.7015C14.7114 14.7015 16.9439 12.4689 16.9439 9.72844C16.9439 9.54425 17.0946 9.39355 17.2788 9.39355C17.463 9.39355 17.6137 9.54425 17.6137 9.72844C17.6137 12.8373 15.0853 15.3712 11.9709 15.3712Z" fill="#121331"/>
<path d="M16.5536 12.8707C16.3694 12.8707 16.2188 12.72 16.2188 12.5358C16.2188 12.3516 16.3694 12.2009 16.5536 12.2009L17.5136 12.1953C17.6308 12.1953 17.7481 12.1618 17.8541 12.1004C17.9546 12.0391 18.0383 11.9497 18.0941 11.8437C18.1946 11.6484 18.189 11.4195 18.0829 11.2297C17.9769 11.04 17.7871 10.9172 17.5694 10.9004L17.2457 10.8893C17.0615 10.8837 16.9164 10.7274 16.922 10.5432C16.9276 10.3591 17.0839 10.2139 17.2681 10.2195L17.5974 10.2307C17.6029 10.2307 17.6029 10.2307 17.6085 10.2307C18.0494 10.2642 18.4457 10.5097 18.6634 10.9004C18.8811 11.2856 18.8922 11.7544 18.6913 12.1507C18.5797 12.3684 18.4122 12.547 18.2057 12.6753C17.9992 12.8037 17.7592 12.8707 17.5192 12.8707H16.5536Z" fill="#121331"/>
<path d="M7.44733 12.8708L6.48733 12.8652C6.24733 12.8652 6.00733 12.7982 5.80082 12.6698C5.59431 12.5415 5.42687 12.3629 5.31524 12.1452C5.11431 11.7489 5.12547 11.2801 5.34315 10.895C5.56082 10.5098 5.9571 10.2587 6.39803 10.2252C6.40361 10.2252 6.40361 10.2252 6.40919 10.2252L6.71617 10.214C6.90036 10.2084 7.05664 10.3536 7.06222 10.5377C7.0678 10.7219 6.92268 10.8782 6.7385 10.8838L6.4371 10.895C6.21943 10.9117 6.02966 11.0289 5.92361 11.2243C5.81198 11.4196 5.81198 11.6429 5.91245 11.8382C5.96826 11.9443 6.0464 12.0336 6.15245 12.095C6.25291 12.1563 6.37012 12.1898 6.48733 12.1898L7.44733 12.1954C7.63152 12.1954 7.78222 12.3461 7.78222 12.5303C7.78222 12.7201 7.63152 12.8708 7.44733 12.8708Z" fill="#121331"/>
<path d="M13.0894 22.6715H10.8457C10.3824 22.6715 9.94706 22.4985 9.6066 22.1803L9.60102 22.1748C9.39451 21.9794 9.12102 21.8678 8.83637 21.8678L8.32288 21.8622C7.33497 21.851 6.53125 21.0361 6.53125 20.0482V19.6966C6.53125 17.7096 8.14986 16.091 10.1368 16.091H10.4773C10.6615 16.091 10.8122 16.2417 10.8122 16.4259C10.8122 16.6101 10.6615 16.7608 10.4773 16.7608H10.1368C8.51823 16.7608 7.20102 18.078 7.20102 19.6966V20.0482C7.20102 20.6678 7.70892 21.1813 8.32846 21.1924L8.84195 21.198C9.29404 21.2036 9.72381 21.3766 10.0587 21.6892L10.0643 21.6948C10.2764 21.8957 10.5554 22.0017 10.8457 22.0017H13.0894C13.3796 22.0017 13.6587 21.8901 13.8708 21.6948C14.2057 21.3822 14.6466 21.2036 15.1099 21.2036H15.5954C16.2261 21.2036 16.7396 20.6901 16.7396 20.0594V19.691C16.7396 18.0724 15.4224 16.7552 13.8038 16.7552H13.4578C13.2736 16.7552 13.1229 16.6045 13.1229 16.4203C13.1229 16.2361 13.2736 16.0854 13.4578 16.0854H13.8038C15.7908 16.0854 17.4094 17.7041 17.4094 19.691V20.0594C17.4094 21.0585 16.5945 21.8734 15.5954 21.8734H15.1099C14.8196 21.8734 14.5406 21.985 14.3285 22.1803C13.9936 22.4985 13.5526 22.6715 13.0894 22.6715Z" fill="#121331"/>
<path d="M6.66491 10.6437C6.50305 10.6437 6.36351 10.5265 6.3356 10.3646C6.31886 10.2698 5.95607 7.99813 6.04537 4.40929C6.05095 4.28092 6.12351 4.16371 6.2463 4.11348C6.36351 4.06324 6.50305 4.07999 6.59793 4.16371L6.7877 4.32557L6.83793 1.81394C6.83793 1.71348 6.88816 1.61859 6.97188 1.55162C7.0556 1.49022 7.15607 1.46789 7.25653 1.4958L11.1635 2.48371L11.2919 1.61301C11.3198 1.42883 11.4872 1.30603 11.6714 1.32836C11.8054 1.3451 14.9086 1.83069 16.3821 4.21952C16.5551 4.4372 17.6491 5.96092 17.6212 9.94603C17.6268 10.1581 17.6156 10.2977 17.6156 10.32C17.6044 10.5042 17.4482 10.6437 17.2696 10.6325C17.0854 10.627 16.9458 10.4707 16.9458 10.2921C16.9514 10.1581 16.9514 10.0298 16.9514 9.8958C16.9347 9.11999 16.7617 7.81952 16.0807 7.30045C15.7068 7.0158 15.21 6.9879 14.5626 7.21115C13.0165 7.74696 10.9347 7.74696 9.38863 7.21115C8.74119 6.9879 8.24444 7.0158 7.87049 7.30045C7.05002 7.91999 6.9663 9.6558 7.00537 10.2753C7.01653 10.4539 6.88258 10.6102 6.70956 10.627C6.68723 10.6437 6.67607 10.6437 6.66491 10.6437ZM6.70398 5.12929C6.69281 6.10603 6.72072 6.97673 6.75979 7.7079C6.92723 7.3451 7.15049 7.0158 7.46305 6.78138C8.02119 6.3572 8.74119 6.2958 9.6063 6.59162C11.0017 7.0772 12.9496 7.0772 14.3449 6.59162C15.21 6.29022 15.93 6.3572 16.4882 6.78138C16.5719 6.84278 16.6444 6.90976 16.717 6.9879C16.3933 5.29673 15.863 4.64929 15.8575 4.63813C15.8463 4.62138 15.8351 4.61022 15.824 4.59348C14.7803 2.87999 12.704 2.24929 11.9003 2.0651L11.7663 2.95255C11.7551 3.04743 11.6993 3.13115 11.6212 3.18138C11.543 3.23162 11.4426 3.24836 11.3533 3.22603L7.49653 2.25487L7.44072 5.05115C7.44072 5.17952 7.36258 5.29673 7.24537 5.35255C7.12816 5.40836 6.98863 5.38603 6.88816 5.30231L6.70398 5.12929Z" fill="url(#paint0_linear_83_444)"/>
<path d="M11.9736 18.2066C10.9689 18.2066 10.1484 17.3861 10.1484 16.3815V14.8466C10.1484 14.6624 10.2991 14.5117 10.4833 14.5117C10.6675 14.5117 10.8182 14.6624 10.8182 14.8466V16.3815C10.8182 17.0178 11.3373 17.5368 11.9736 17.5368C12.6098 17.5368 13.1289 17.0178 13.1289 16.3815V14.8466C13.1289 14.6624 13.2796 14.5117 13.4638 14.5117C13.648 14.5117 13.7987 14.6624 13.7987 14.8466V16.3815C13.7931 17.3861 12.9782 18.2066 11.9736 18.2066Z" fill="#121331"/>
<path d="M14.9462 19.7414H13.456C13.2718 19.7414 13.1211 19.5907 13.1211 19.4065C13.1211 19.2224 13.2718 19.0717 13.456 19.0717H14.9462C15.1304 19.0717 15.2811 19.2224 15.2811 19.4065C15.2811 19.5907 15.1304 19.7414 14.9462 19.7414Z" fill="url(#paint1_linear_83_444)"/>
<path d="M11.9727 13.7804C11.6825 13.7804 11.3923 13.7358 11.1188 13.6409C10.8676 13.5572 10.6332 13.4344 10.4211 13.2837C10.2704 13.1776 10.2369 12.9656 10.343 12.8149C10.449 12.6642 10.6611 12.6307 10.8118 12.7367C10.9737 12.8539 11.1467 12.9432 11.3365 13.0046C11.543 13.0716 11.7551 13.1107 11.9783 13.1107C12.1625 13.1107 12.3132 13.2614 12.3132 13.4456C12.3132 13.6297 12.1569 13.7804 11.9727 13.7804Z" fill="#121331"/>
<defs>
<linearGradient id="paint0_linear_83_444" x1="6.03125" y1="5.98473" x2="17.6229" y2="5.96525" gradientUnits="userSpaceOnUse">
<stop stop-color="#3000D6"/>
<stop offset="1" stop-color="#3DD0F0"/>
</linearGradient>
<linearGradient id="paint1_linear_83_444" x1="13.1211" y1="19.4065" x2="15.2811" y2="19.3971" gradientUnits="userSpaceOnUse">
<stop stop-color="#3000D6"/>
<stop offset="1" stop-color="#3DD0F0"/>
</linearGradient>
</defs>
</svg>
