<svg width="64" height="125" viewBox="0 0 64 125" fill="none" xmlns="http://www.w3.org/2000/svg">
<path d="M16.5501 123.618C12.223 125.588 7.07936 123.686 5.50107 119.202C2.15741 109.701 0.307968 99.7202 0.0353088 89.6168C-0.314911 76.6396 1.94336 63.7241 6.67632 51.6357C11.4093 39.5473 18.5206 28.5319 27.5889 19.2423C34.649 12.01 42.7834 5.93825 51.689 1.23337C55.8927 -0.987455 60.96 1.10888 62.7995 5.49284C64.6391 9.8768 62.5476 14.8819 58.3872 17.1828C51.5869 20.9438 45.3587 25.6859 39.9088 31.2687C32.45 38.9095 26.6009 47.9697 22.708 57.9126C18.8151 67.8554 16.9576 78.4785 17.2457 89.1524C17.4562 96.9514 18.809 104.662 21.2479 112.04C22.7401 116.554 20.8772 121.649 16.5501 123.618Z" fill="#3000D6"/>
</svg>
