<svg width="118" height="118" viewBox="0 0 118 118" fill="none" xmlns="http://www.w3.org/2000/svg">
<path d="M58.857 75.5752C43.5444 75.5752 31.1133 63.1166 31.1133 47.8315C31.1133 46.9259 31.8542 46.185 32.7598 46.185C33.6654 46.185 34.4063 46.9259 34.4063 47.8315C34.4063 61.3055 45.3831 72.2822 58.857 72.2822C72.331 72.2822 83.3077 61.3055 83.3077 47.8315C83.3077 46.9259 84.0486 46.185 84.9542 46.185C85.8598 46.185 86.6007 46.9259 86.6007 47.8315C86.6007 63.1166 74.1696 75.5752 58.857 75.5752Z" fill="#121331"/>
<path d="M81.3887 63.2808C80.4831 63.2808 79.7422 62.5399 79.7422 61.6343C79.7422 60.7287 80.4831 59.9878 81.3887 59.9878L86.1087 59.9604C86.685 59.9604 87.2613 59.7957 87.7826 59.4938C88.2766 59.192 88.6882 58.7529 88.9627 58.2315C89.4566 57.2711 89.4292 56.1459 88.9078 55.2129C88.3864 54.2799 87.4533 53.6762 86.3831 53.5938L84.7915 53.539C83.8859 53.5115 83.1724 52.7431 83.1999 51.8376C83.2273 50.932 83.9957 50.2185 84.9013 50.2459L86.5203 50.3008C86.5478 50.3008 86.5478 50.3008 86.5752 50.3008C88.7431 50.4655 90.6915 51.6729 91.7617 53.5938C92.832 55.4873 92.8868 57.7925 91.8989 59.7408C91.3501 60.8111 90.5268 61.6892 89.5115 62.3204C88.4961 62.9515 87.3161 63.2808 86.1361 63.2808H81.3887Z" fill="#121331"/>
<path d="M36.6154 63.2812L31.8954 63.2538C30.7154 63.2538 29.5354 62.9245 28.5201 62.2933C27.5047 61.6622 26.6814 60.784 26.1326 59.7138C25.1447 57.7654 25.1996 55.4603 26.2698 53.5668C27.3401 51.6733 29.2884 50.4384 31.4563 50.2738C31.4838 50.2738 31.4838 50.2738 31.5112 50.2738L33.0205 50.2189C33.9261 50.1915 34.6945 50.905 34.7219 51.8105C34.7494 52.7161 34.0359 53.4845 33.1303 53.5119L31.6484 53.5668C30.5782 53.6491 29.6452 54.2254 29.1238 55.1859C28.5749 56.1463 28.5749 57.244 29.0689 58.2045C29.3433 58.7259 29.7275 59.165 30.2489 59.4668C30.7428 59.7687 31.3191 59.9333 31.8954 59.9333L36.6154 59.9608C37.521 59.9608 38.2619 60.7017 38.2619 61.6073C38.2619 62.5403 37.521 63.2812 36.6154 63.2812Z" fill="#121331"/>
<path d="M64.3555 111.468H53.3239C51.0462 111.468 48.9057 110.617 47.2318 109.053L47.2044 109.026C46.189 108.065 44.8444 107.517 43.4448 107.517L40.9202 107.489C36.063 107.434 32.1113 103.428 32.1113 98.5705V96.8417C32.1113 87.0724 40.0695 79.1142 49.8388 79.1142H51.5127C52.4183 79.1142 53.1592 79.8552 53.1592 80.7607C53.1592 81.6663 52.4183 82.4073 51.5127 82.4073H49.8388C41.8806 82.4073 35.4044 88.8835 35.4044 96.8417V98.5705C35.4044 101.617 37.9016 104.141 40.9476 104.196L43.4723 104.224C45.695 104.251 47.8081 105.102 49.4546 106.638L49.482 106.666C50.5248 107.654 51.8969 108.175 53.3239 108.175H64.3555C65.7825 108.175 67.1546 107.626 68.1974 106.666C69.8439 105.129 72.0118 104.251 74.2895 104.251H76.6769C79.7778 104.251 82.3025 101.726 82.3025 98.6254V96.8142C82.3025 88.8561 75.8262 82.3798 67.8681 82.3798H66.1667C65.2611 82.3798 64.5202 81.6389 64.5202 80.7333C64.5202 79.8277 65.2611 79.0868 66.1667 79.0868H67.8681C77.6374 79.0868 85.5955 87.0449 85.5955 96.8142V98.6254C85.5955 103.537 81.589 107.544 76.6769 107.544H74.2895C72.8625 107.544 71.4904 108.093 70.4476 109.053C68.8011 110.617 66.6332 111.468 64.3555 111.468Z" fill="#121331"/>
<path d="M32.7698 52.3315C31.974 52.3315 31.2879 51.7552 31.1507 50.9594C31.0684 50.4929 29.2847 39.3241 29.7237 21.679C29.7512 21.0478 30.1079 20.4715 30.7116 20.2245C31.2879 19.9776 31.974 20.0599 32.4405 20.4715L33.3735 21.2673L33.6205 8.91849C33.6205 8.42454 33.8674 7.95802 34.2791 7.62872C34.6907 7.32686 35.1847 7.21709 35.6786 7.3543L54.8879 12.2115L55.5191 7.93058C55.6563 7.025 56.4795 6.42128 57.3851 6.53105C58.0437 6.61337 73.3014 9.00081 80.546 20.7459C81.3967 21.8162 86.7753 29.3078 86.6381 48.9013C86.6656 49.9441 86.6107 50.6301 86.6107 50.7399C86.5558 51.6455 85.7874 52.3315 84.9093 52.2766C84.0037 52.2492 83.3177 51.4808 83.3177 50.6027C83.3451 49.9441 83.3451 49.3129 83.3451 48.6543C83.2628 44.8399 82.4121 38.4459 79.0642 35.8938C77.2256 34.4943 74.7833 34.3571 71.6 35.4548C63.9986 38.0892 53.7628 38.0892 46.1614 35.4548C42.9781 34.3571 40.5358 34.4943 38.6972 35.8938C34.6633 38.9399 34.2516 47.4743 34.4437 50.5203C34.4986 51.3985 33.84 52.1669 32.9893 52.2492C32.8795 52.3315 32.8247 52.3315 32.7698 52.3315ZM32.9619 25.219C32.907 30.0213 33.0442 34.3022 33.2363 37.8971C34.0595 36.1134 35.1572 34.4943 36.694 33.3417C39.4381 31.2562 42.9781 30.9543 47.2316 32.4087C54.0921 34.7962 63.6693 34.7962 70.5298 32.4087C74.7833 30.9269 78.3232 31.2562 81.0674 33.3417C81.4791 33.6436 81.8358 33.9729 82.1926 34.3571C80.6009 26.0422 77.994 22.859 77.9665 22.8041C77.9116 22.7217 77.8567 22.6669 77.8019 22.5845C72.6702 14.1599 62.4619 11.059 58.5102 10.1534L57.8516 14.5166C57.7967 14.9831 57.5223 15.3948 57.1381 15.6417C56.754 15.8887 56.26 15.971 55.8209 15.8613L36.8586 11.0864L36.5842 24.8348C36.5842 25.4659 36.2 26.0422 35.6237 26.3166C35.0474 26.591 34.3614 26.4813 33.8674 26.0697L32.9619 25.219Z" fill="url(#paint0_linear_83_884)"/>
<path d="M58.87 89.5158C53.9304 89.5158 49.8965 85.4819 49.8965 80.5423V72.9958C49.8965 72.0902 50.6374 71.3493 51.543 71.3493C52.4486 71.3493 53.1895 72.0902 53.1895 72.9958V80.5423C53.1895 83.6707 55.7416 86.2228 58.87 86.2228C61.9983 86.2228 64.5504 83.6707 64.5504 80.5423V72.9958C64.5504 72.0902 65.2914 71.3493 66.1969 71.3493C67.1025 71.3493 67.8435 72.0902 67.8435 72.9958V80.5423C67.816 85.4819 63.8095 89.5158 58.87 89.5158Z" fill="#121331"/>
<path d="M73.4852 97.0619H66.1582C65.2526 97.0619 64.5117 96.321 64.5117 95.4154C64.5117 94.5099 65.2526 93.7689 66.1582 93.7689H73.4852C74.3908 93.7689 75.1317 94.5099 75.1317 95.4154C75.1317 96.321 74.3908 97.0619 73.4852 97.0619Z" fill="url(#paint1_linear_83_884)"/>
<path d="M58.8654 67.7539C57.4384 67.7539 56.0114 67.5343 54.6668 67.0678C53.4319 66.6562 52.2793 66.0525 51.2365 65.3115C50.4956 64.7901 50.3309 63.7474 50.8523 63.0064C51.3737 62.2655 52.4165 62.1008 53.1575 62.6222C53.9533 63.1985 54.804 63.6376 55.737 63.9394C56.7523 64.2687 57.7951 64.4608 58.8928 64.4608C59.7984 64.4608 60.5393 65.2018 60.5393 66.1074C60.5393 67.0129 59.7709 67.7539 58.8654 67.7539Z" fill="#121331"/>
<defs>
<linearGradient id="paint0_linear_83_884" x1="29.6543" y1="29.4248" x2="86.6463" y2="29.3291" gradientUnits="userSpaceOnUse">
<stop stop-color="#3000D6"/>
<stop offset="1" stop-color="#3DD0F0"/>
</linearGradient>
<linearGradient id="paint1_linear_83_884" x1="64.5117" y1="95.4154" x2="75.1316" y2="95.3692" gradientUnits="userSpaceOnUse">
<stop stop-color="#3000D6"/>
<stop offset="1" stop-color="#3DD0F0"/>
</linearGradient>
</defs>
</svg>
