<svg width="123" height="135" viewBox="0 0 123 135" fill="none" xmlns="http://www.w3.org/2000/svg">
<path d="M16.5501 133.618C12.223 135.588 7.07932 133.686 5.50099 129.202C0.292374 114.402 -1.26271 98.5151 1.02917 82.9074C3.73917 64.4523 11.7128 47.17 23.9947 33.1312C36.2765 19.0924 52.3457 8.89252 70.2768 3.7537C85.4415 -0.592293 101.394 -1.16253 116.755 2.03283C121.409 3.00109 123.978 7.84639 122.601 12.3969C121.224 16.9473 116.422 19.4708 111.75 18.5919C99.5789 16.3023 87.0005 16.8706 75.02 20.3041C60.2715 24.5308 47.0544 32.9203 36.9525 44.4674C26.8505 56.0144 20.2922 70.2293 18.0632 85.4087C16.2525 97.7393 17.3611 110.282 21.2479 122.04C22.74 126.554 20.8772 131.649 16.5501 133.618Z" fill="#3DD0F0"/>
</svg>
