<svg width="118" height="118" viewBox="0 0 118 118" fill="none" xmlns="http://www.w3.org/2000/svg">
<path d="M38.4922 82.3262H29.4089C28.9424 82.3262 28.4759 82.1341 28.174 81.7774C27.8722 81.4206 27.7075 80.9541 27.7624 80.4876C28.2015 76.8927 28.4759 68.962 28.5857 57.5736C28.5857 56.6681 29.3266 55.9271 30.2322 55.9271C31.1378 55.9271 31.8787 56.6681 31.8787 57.5736C31.8238 64.6811 31.6592 73.7643 31.2201 79.0057H38.4647C39.3703 79.0057 40.1112 79.7467 40.1112 80.6522C40.1112 81.5578 39.3978 82.3262 38.4922 82.3262Z" fill="url(#paint0_linear_83_893)"/>
<path d="M88.1984 82.3256H79.1426C78.237 82.3256 77.4961 81.5846 77.4961 80.679C77.4961 79.7735 78.237 79.0325 79.1426 79.0325H86.3873C86.0305 74.8614 85.811 67.699 85.7287 57.7102C85.7287 56.8046 86.4421 56.0637 87.3477 56.0363C87.3477 56.0363 87.3477 56.0363 87.3752 56.0363C88.2807 56.0363 89.0217 56.7772 89.0217 57.6553C89.1314 69.0163 89.4059 76.9195 89.8449 80.4595C89.8998 80.926 89.7626 81.3925 89.4333 81.7493C89.1314 82.1335 88.6649 82.3256 88.1984 82.3256Z" fill="url(#paint1_linear_83_893)"/>
<path d="M64.3555 107.709H53.3239C51.0462 107.709 48.9057 106.858 47.2318 105.294L47.2044 105.266C46.189 104.306 44.8444 103.757 43.4448 103.757L40.9202 103.73C36.063 103.675 32.1113 99.6682 32.1113 94.811V93.0822C32.1113 83.3129 40.0695 75.3547 49.8388 75.3547H51.5127C52.4183 75.3547 53.1592 76.0956 53.1592 77.0012C53.1592 77.9068 52.4183 78.6477 51.5127 78.6477H49.8388C41.8806 78.6477 35.4044 85.124 35.4044 93.0822V94.811C35.4044 97.857 37.9016 100.382 40.9476 100.437L43.4723 100.464C45.695 100.491 47.8081 101.342 49.4546 102.879L49.482 102.906C50.5248 103.894 51.8969 104.416 53.3239 104.416H64.3555C65.7825 104.416 67.1546 103.867 68.1974 102.906C69.8439 101.37 72.0118 100.491 74.2895 100.491H76.6769C79.7778 100.491 82.3025 97.9668 82.3025 94.8659V93.0547C82.3025 85.0966 75.8262 78.6203 67.8681 78.6203H66.1667C65.2611 78.6203 64.5202 77.8794 64.5202 76.9738C64.5202 76.0682 65.2611 75.3273 66.1667 75.3273H67.8681C77.6374 75.3273 85.5955 83.2854 85.5955 93.0547V94.8659C85.5955 99.778 81.589 103.784 76.6769 103.784H74.2895C72.8625 103.784 71.4904 104.333 70.4476 105.294C68.8011 106.858 66.6332 107.709 64.3555 107.709Z" fill="#121331"/>
<path d="M58.87 85.7563C53.9304 85.7563 49.8965 81.7223 49.8965 76.7828V69.2363C49.8965 68.3307 50.6374 67.5898 51.543 67.5898C52.4486 67.5898 53.1895 68.3307 53.1895 69.2363V76.7828C53.1895 79.9112 55.7416 82.4633 58.87 82.4633C61.9983 82.4633 64.5504 79.9112 64.5504 76.7828V69.2363C64.5504 68.3307 65.2914 67.5898 66.1969 67.5898C67.1025 67.5898 67.8435 68.3307 67.8435 69.2363V76.7828C67.816 81.7498 63.8095 85.7563 58.87 85.7563Z" fill="#121331"/>
<path d="M73.4852 93.3024H66.1582C65.2526 93.3024 64.5117 92.5615 64.5117 91.6559C64.5117 90.7503 65.2526 90.0094 66.1582 90.0094H73.4852C74.3908 90.0094 75.1317 90.7503 75.1317 91.6559C75.1317 92.5615 74.3908 93.3024 73.4852 93.3024Z" fill="url(#paint2_linear_83_893)"/>
<path d="M59.0849 63.9943C57.4933 63.9943 55.9291 63.7748 54.6393 63.3083C53.377 62.8692 52.2244 62.2655 51.2365 61.552C50.4956 61.0306 50.3309 59.9878 50.8523 59.2469C51.3737 58.5059 52.4165 58.3413 53.1575 58.8627C53.8984 59.3841 54.7765 59.8506 55.737 60.1799C57.7951 60.9208 60.8412 60.7562 62.4602 60.1799C63.5305 59.7957 64.4361 59.3566 65.2044 58.8352C65.9454 58.3139 66.9882 58.5059 67.4821 59.2469C67.9761 59.9878 67.8114 61.0306 67.0705 61.5245C66.0551 62.2106 64.9026 62.7869 63.5579 63.2534C62.2682 63.7473 60.6765 63.9943 59.0849 63.9943Z" fill="#121331"/>
<path d="M30.2716 50.1087C29.366 50.1087 28.6251 49.3678 28.6251 48.4622C28.6251 44.1264 28.5977 41.1078 28.5977 41.0803C28.5977 40.1748 29.3111 39.4338 30.2442 39.4338C30.2442 39.4338 30.2442 39.4338 30.2716 39.4338C31.1772 39.4338 31.9181 40.1748 31.9181 41.0803C31.9181 41.1078 31.9456 44.1538 31.9456 48.4897C31.9181 49.3678 31.2046 50.1087 30.2716 50.1087Z" fill="url(#paint3_linear_83_893)"/>
<path d="M87.3418 49.9993C86.4362 49.9993 85.6953 49.2584 85.6953 48.3528C85.6953 44.0719 85.7228 41.0807 85.7228 41.0533C85.7228 40.1477 86.4637 39.4342 87.3693 39.4342C88.2748 39.4342 89.0158 40.1751 89.0158 41.1082C89.0158 41.1356 88.9883 44.0993 88.9883 48.3803C88.9883 49.2584 88.2474 49.9993 87.3418 49.9993Z" fill="url(#paint4_linear_83_893)"/>
<path d="M81.3887 59.5213C80.4831 59.5213 79.7422 58.7804 79.7422 57.8748C79.7422 56.9692 80.4831 56.2283 81.3887 56.2283L86.1087 56.2008C86.685 56.2008 87.2613 56.0362 87.7826 55.7343C88.2766 55.4325 88.6882 54.9934 88.9627 54.472C89.4566 53.5115 89.4292 52.3864 88.9078 51.4534C88.3864 50.5204 87.4533 49.9167 86.3831 49.8343L84.7915 49.7794C83.8859 49.752 83.1724 48.9836 83.1999 48.0781C83.2273 47.1725 83.9957 46.459 84.9013 46.4864L86.5203 46.5413C86.5478 46.5413 86.5478 46.5413 86.5752 46.5413C88.7431 46.706 90.6915 47.9134 91.7617 49.8343C92.832 51.7278 92.8868 54.0329 91.8989 55.9813C91.3501 57.0515 90.5268 57.9297 89.5115 58.5608C88.4961 59.192 87.3161 59.5213 86.1361 59.5213H81.3887Z" fill="#121331"/>
<path d="M36.6154 59.5217L31.8954 59.4943C30.7154 59.4943 29.5354 59.165 28.5201 58.5338C27.5047 57.9026 26.6814 57.0245 26.1326 55.9543C25.1447 54.0059 25.1996 51.7008 26.2698 49.8073C27.3401 47.9138 29.2884 46.6789 31.4563 46.5143C31.4838 46.5143 31.4838 46.5143 31.5112 46.5143L33.0205 46.4594C33.9261 46.4319 34.6945 47.1454 34.7219 48.051C34.7494 48.9566 34.0359 49.725 33.1303 49.7524L31.6484 49.8073C30.5782 49.8896 29.6452 50.4659 29.1238 51.4264C28.5749 52.3868 28.5749 53.4845 29.0689 54.445C29.3433 54.9664 29.7275 55.4054 30.2489 55.7073C30.7428 56.0092 31.3191 56.1738 31.8954 56.1738L36.6154 56.2012C37.521 56.2012 38.2619 56.9422 38.2619 57.8478C38.2619 58.8082 37.521 59.5217 36.6154 59.5217Z" fill="#121331"/>
<path d="M58.857 71.7049C43.5444 71.7049 31.1133 59.2463 31.1133 43.9611V40.5309C31.1133 39.6253 31.8542 38.8844 32.7598 38.8844C33.6654 38.8844 34.4063 39.6253 34.4063 40.5309V43.9611C34.4063 57.4351 45.3831 68.4118 58.857 68.4118C72.331 68.4118 83.3077 57.4351 83.3077 43.9611V40.5309C83.3077 39.6253 84.0486 38.8844 84.9542 38.8844C85.8598 38.8844 86.6007 39.6253 86.6007 40.5309V43.9611C86.6007 59.2737 74.1696 71.7049 58.857 71.7049Z" fill="#121331"/>
<path d="M87.48 42.1781H69.9721C69.3409 42.1781 68.7646 41.8213 68.4902 41.2725L66.3497 36.9093L64.813 41.1079C64.566 41.7665 63.9623 42.1781 63.2763 42.1781H55.3456C54.8242 42.1781 54.3302 41.9311 54.0283 41.5195L52.6288 39.626L51.1744 41.5469C50.8725 41.9585 50.3786 42.2055 49.8572 42.2055H30.2637C29.3581 42.2055 28.6172 41.4646 28.6172 40.559C28.6172 23.8744 42.2009 10.2906 58.8856 10.2906C75.5702 10.2906 89.1539 23.8744 89.1539 40.559C89.1265 41.4646 88.3856 42.1781 87.48 42.1781ZM71.0149 38.8851H85.7786C84.9279 24.7799 73.1828 13.5562 58.8581 13.5562C44.5335 13.5562 32.7883 24.7799 31.9377 38.8851H49.0339L51.339 35.8939C51.6409 35.4823 52.1349 35.2353 52.6563 35.2353C53.1776 35.2353 53.6716 35.4823 53.9735 35.8939L56.1688 38.8851H62.1237L64.5935 32.1344C64.813 31.5032 65.3893 31.0916 66.0479 31.0641C66.7065 31.0367 67.3102 31.3934 67.6121 31.9697L71.0149 38.8851Z" fill="url(#paint5_linear_83_893)"/>
<defs>
<linearGradient id="paint0_linear_83_893" x1="27.752" y1="69.1267" x2="40.1114" y2="69.1188" gradientUnits="userSpaceOnUse">
<stop stop-color="#3000D6"/>
<stop offset="1" stop-color="#3DD0F0"/>
</linearGradient>
<linearGradient id="paint1_linear_83_893" x1="77.4961" y1="69.1809" x2="89.8568" y2="69.1731" gradientUnits="userSpaceOnUse">
<stop stop-color="#3000D6"/>
<stop offset="1" stop-color="#3DD0F0"/>
</linearGradient>
<linearGradient id="paint2_linear_83_893" x1="64.5117" y1="91.6559" x2="75.1316" y2="91.6097" gradientUnits="userSpaceOnUse">
<stop stop-color="#3000D6"/>
<stop offset="1" stop-color="#3DD0F0"/>
</linearGradient>
<linearGradient id="paint3_linear_83_893" x1="28.5977" y1="44.7713" x2="31.9456" y2="44.7699" gradientUnits="userSpaceOnUse">
<stop stop-color="#3000D6"/>
<stop offset="1" stop-color="#3DD0F0"/>
</linearGradient>
<linearGradient id="paint4_linear_83_893" x1="85.6953" y1="44.7168" x2="89.0158" y2="44.7154" gradientUnits="userSpaceOnUse">
<stop stop-color="#3000D6"/>
<stop offset="1" stop-color="#3DD0F0"/>
</linearGradient>
<linearGradient id="paint5_linear_83_893" x1="28.6172" y1="26.2481" x2="89.1543" y2="26.093" gradientUnits="userSpaceOnUse">
<stop stop-color="#3000D6"/>
<stop offset="1" stop-color="#3DD0F0"/>
</linearGradient>
</defs>
</svg>
