<svg width="118" height="118" viewBox="0 0 118 118" fill="none" xmlns="http://www.w3.org/2000/svg">
<path d="M31.5577 72.3642C19.3461 72.3642 9.41211 62.4303 9.41211 50.2187C9.41211 49.3131 10.153 48.5721 11.0586 48.5721C11.9642 48.5721 12.7051 49.3131 12.7051 50.2187C12.7051 60.6191 21.1572 69.0712 31.5577 69.0712C41.9582 69.0712 50.4102 60.6191 50.4102 50.2187C50.4102 49.3131 51.1512 48.5721 52.0568 48.5721C52.9623 48.5721 53.7033 49.3131 53.7033 50.2187C53.7033 62.4303 43.7693 72.3642 31.5577 72.3642Z" fill="#121331"/>
<path d="M50.0821 61.3325C49.1765 61.3325 48.4355 60.5916 48.4355 59.686C48.4355 58.7804 49.1765 58.0395 50.0821 58.0395H52.4695C52.6067 58.0395 52.7439 58.0121 52.8811 57.9297C52.9909 57.8474 53.1007 57.7376 53.1555 57.6279C53.3202 57.2986 53.2104 57.0241 53.1281 56.8869C53.0458 56.7497 52.8811 56.5302 52.5244 56.5027L51.756 56.4753C50.8504 56.4479 50.1369 55.6795 50.1644 54.7739C50.1918 53.8683 50.9602 53.1548 51.8658 53.1823L52.689 53.2097C52.7165 53.2097 52.7165 53.2097 52.7439 53.2097C54.116 53.3195 55.3235 54.0879 56.0095 55.2679C56.6955 56.4753 56.723 57.9023 56.0918 59.1372C55.7625 59.7958 55.2411 60.372 54.61 60.7562C53.9514 61.1404 53.2379 61.36 52.4695 61.36L50.0821 61.3325Z" fill="#121331"/>
<path d="M12.5689 61.3326H10.1814C9.44051 61.3326 8.69958 61.1131 8.06842 60.7289C7.43726 60.3447 6.91586 59.7684 6.55912 59.1098C5.92795 57.8749 5.9554 56.448 6.64144 55.2405C7.32749 54.0331 8.53493 53.2647 9.90702 53.1824C9.93447 53.1824 9.93447 53.1824 9.96191 53.1824L10.7852 53.1549C11.6907 53.1275 12.4591 53.841 12.4866 54.7466C12.514 55.6522 11.8005 56.4205 10.8949 56.448L10.1266 56.4754C9.76981 56.5028 9.60516 56.7498 9.52284 56.8596C9.44051 56.9968 9.33074 57.2712 9.4954 57.6005C9.55028 57.7377 9.66005 57.8475 9.79726 57.9024C9.90702 57.9847 10.0717 58.0121 10.2089 58.0121H12.5963C13.5019 58.0121 14.2428 58.7531 14.2428 59.6587C14.2154 60.6191 13.4745 61.3326 12.5689 61.3326Z" fill="#121331"/>
<path d="M35.8946 100.574H27.2229C25.3569 100.574 23.5732 99.8609 22.2011 98.5985L22.1736 98.5711C21.4327 97.8851 20.4722 97.5009 19.4569 97.4734L17.4811 97.446C13.4746 97.3911 10.209 94.0981 10.209 90.0916V88.7195C10.209 80.8437 16.6029 74.4497 24.4788 74.4497H25.796C26.7015 74.4497 27.4425 75.1906 27.4425 76.0962C27.4425 77.0018 26.7015 77.7427 25.796 77.7427H24.4788C18.4141 77.7427 13.502 82.6548 13.502 88.7195V90.0916C13.502 92.3144 15.3132 94.1255 17.5085 94.153L19.4843 94.1804C21.3229 94.2079 23.0792 94.9213 24.4239 96.1562L24.4513 96.1837C25.1922 96.8972 26.1801 97.2813 27.2229 97.2813H35.8671C36.9099 97.2813 37.8978 96.8972 38.6388 96.1837C40.0108 94.8939 41.7946 94.2078 43.6606 94.2078H45.5267C47.7769 94.2078 49.5881 92.3967 49.5881 90.1465V88.7195C49.5881 82.6548 44.676 77.7427 38.6113 77.7427H37.2667C36.3611 77.7427 35.6201 77.0018 35.6201 76.0962C35.6201 75.1906 36.3611 74.4497 37.2667 74.4497H38.6113C46.4871 74.4497 52.8811 80.8437 52.8811 88.7195V90.1465C52.8811 94.2078 49.5881 97.5009 45.5267 97.5009H43.6606C42.6178 97.5009 41.6299 97.8851 40.889 98.5985C39.5443 99.8609 37.7606 100.574 35.8946 100.574Z" fill="#121331"/>
<path d="M52.0848 54.1153H52.0573C51.1517 54.0879 50.4383 53.347 50.4383 52.4414C50.795 36.3605 46.3494 30.8446 46.2945 30.7898C46.2396 30.7074 46.1848 30.6525 46.1299 30.5702C42.3155 24.3135 34.8513 21.8437 31.5857 21.0479L31.1192 24.0939C31.0643 24.5605 30.7899 24.9721 30.4057 25.2191C30.0215 25.466 29.5276 25.5484 29.0885 25.4386L14.6266 21.7888L14.4345 32.1618C14.4345 32.793 14.0503 33.3693 13.4741 33.6437C12.8978 33.9181 12.2117 33.8084 11.7178 33.3967L11.5531 33.2595C11.4982 44.8125 12.6782 52.1395 12.6782 52.2218C12.8155 53.1274 12.2117 53.9781 11.3336 54.1153C10.428 54.2525 9.57732 53.6488 9.44011 52.7707C9.38523 52.4139 7.95825 43.6051 8.31499 29.7195C8.34243 29.0884 8.69918 28.5121 9.3029 28.2651C9.87918 28.0181 10.5652 28.1004 11.0317 28.5121L11.1964 28.6493L11.361 19.7032C11.361 19.2093 11.608 18.7428 12.0196 18.4135C12.4313 18.1116 12.9252 18.0018 13.4192 18.1391L28.128 21.8437L28.5671 18.88C28.7043 17.9744 29.5276 17.3707 30.4331 17.4804C30.9545 17.5628 43.0838 19.4288 48.8741 28.7865C49.6699 29.7744 54.088 36.1409 53.7038 52.5237C53.7038 53.4018 52.9629 54.1153 52.0848 54.1153Z" fill="url(#paint0_linear_83_866)"/>
<path d="M31.5577 83.3135C27.4689 83.3135 24.1484 79.993 24.1484 75.9042V69.9767C24.1484 69.0711 24.8894 68.3302 25.7949 68.3302C26.7005 68.3302 27.4415 69.0711 27.4415 69.9767V75.9042C27.4415 78.1818 29.2801 80.0204 31.5577 80.0204C33.8354 80.0204 35.674 78.1818 35.674 75.9042V69.9767C35.674 69.0711 36.4149 68.3302 37.3205 68.3302C38.2261 68.3302 38.967 69.0711 38.967 69.9767V75.9042C38.967 79.993 35.6466 83.3135 31.5577 83.3135Z" fill="#121331"/>
<path d="M43.0558 89.2409H37.293C36.3874 89.2409 35.6465 88.5 35.6465 87.5944C35.6465 86.6888 36.3874 85.9479 37.293 85.9479H43.0558C43.9614 85.9479 44.7023 86.6888 44.7023 87.5944C44.7023 88.5 43.9614 89.2409 43.0558 89.2409Z" fill="url(#paint1_linear_83_866)"/>
<path d="M31.5575 66.2172C30.3775 66.2172 29.2524 66.0251 28.1547 65.6683C27.1668 65.339 26.2338 64.8451 25.3557 64.2414C24.6147 63.72 24.4501 62.6772 24.9715 61.9362C25.4929 61.1953 26.5357 61.0307 27.2766 61.552C27.8803 61.9637 28.5115 62.3204 29.1975 62.54C29.9659 62.7869 30.7343 62.9241 31.5575 62.9241C32.4631 62.9241 33.204 63.6651 33.204 64.5707C33.204 65.4762 32.4631 66.2172 31.5575 66.2172Z" fill="#121331"/>
<path d="M87.1554 83.3135C83.0666 83.3135 79.7461 79.993 79.7461 75.9042V69.9767C79.7461 69.0711 80.487 68.3302 81.3926 68.3302C82.2982 68.3302 83.0391 69.0711 83.0391 69.9767V75.9042C83.0391 78.1818 84.8777 80.0204 87.1554 80.0204C89.4331 80.0204 91.2717 78.1818 91.2717 75.9042V69.9767C91.2717 69.0711 92.0126 68.3302 92.9182 68.3302C93.8238 68.3302 94.5647 69.0711 94.5647 69.9767V75.9042C94.5647 79.993 91.2442 83.3135 87.1554 83.3135Z" fill="#121331"/>
<path d="M98.6808 89.241H92.918C92.0124 89.241 91.2715 88.5 91.2715 87.5944C91.2715 86.6889 92.0124 85.9479 92.918 85.9479H98.6808C99.5864 85.9479 100.327 86.6889 100.327 87.5944C100.327 88.5 99.5864 89.241 98.6808 89.241Z" fill="url(#paint2_linear_83_866)"/>
<path d="M87.3473 66.2172C86.0575 66.2172 84.7677 66.0251 83.725 65.6684C82.7096 65.3116 81.7766 64.8177 80.9533 64.2414C80.2124 63.72 80.0477 62.6772 80.5691 61.9363C81.0905 61.1953 82.1333 61.0307 82.8743 61.5521C83.4231 61.9637 84.0817 62.293 84.8226 62.54C86.3594 63.0888 88.637 62.9791 89.8719 62.54C90.6952 62.2656 91.3538 61.9363 91.9301 61.5246C92.671 61.0032 93.7138 61.1953 94.2077 61.9363C94.7017 62.6772 94.537 63.72 93.7961 64.2139C92.9729 64.7902 92.0398 65.2567 90.9422 65.6135C89.9268 66.0251 88.637 66.2172 87.3473 66.2172Z" fill="#121331"/>
<path d="M87.1827 72.2819C74.9711 72.2819 65.0371 62.3479 65.0371 50.1363V47.447C65.0371 46.5414 65.778 45.8005 66.6836 45.8005C67.5892 45.8005 68.3301 46.5414 68.3301 47.447V50.1363C68.3301 60.5368 76.7822 68.9888 87.1827 68.9888C97.5832 68.9888 106.035 60.5368 106.035 50.1363V47.447C106.035 46.5414 106.776 45.8005 107.682 45.8005C108.587 45.8005 109.328 46.5414 109.328 47.447V50.1363C109.328 62.3479 99.3943 72.2819 87.1827 72.2819Z" fill="#121331"/>
<path d="M109.657 49.0935H95.9085C95.2773 49.0935 94.701 48.7367 94.4266 48.1604L93.1094 45.4711L92.1764 47.9958C91.9294 48.6544 91.3257 49.066 90.6396 49.066H84.4103C83.8889 49.066 83.395 48.819 83.0931 48.4074L82.2698 47.3097L81.4192 48.4349C81.1173 48.8465 80.6233 49.0935 80.1019 49.0935H64.7071C63.8015 49.0935 63.0605 48.3525 63.0605 47.447C63.0605 34.1377 73.8726 23.3256 87.1819 23.3256C100.491 23.3256 111.303 34.1377 111.303 47.447C111.303 48.3525 110.562 49.0935 109.657 49.0935ZM96.9238 45.8004H107.928C107.077 35.0707 98.1038 26.6186 87.1545 26.6186C76.2326 26.6186 67.2317 35.0981 66.381 45.8004H79.2512L80.9526 43.5777C81.2545 43.166 81.7484 42.9465 82.2698 42.9191C82.7912 42.9191 83.2852 43.166 83.5871 43.5777L85.2061 45.773H89.4596L91.3257 40.7237C91.5452 40.0925 92.1215 39.6809 92.7801 39.6535C93.4387 39.626 94.0424 39.9828 94.3443 40.5591L96.9238 45.8004Z" fill="url(#paint3_linear_83_866)"/>
<path d="M71.1571 80.6241H64.0222C63.5557 80.6241 63.0892 80.432 62.7873 80.0753C62.4855 79.7185 62.3208 79.252 62.3757 78.7855C62.705 75.9865 62.9245 69.7572 63.0069 60.8111L63.0343 53.6488C63.0343 50.246 63.0069 47.886 63.0069 47.8585C63.0069 46.953 63.7203 46.212 64.6534 46.212C64.6534 46.212 64.6534 46.212 64.6808 46.212C65.5864 46.212 66.3273 46.953 66.3273 47.8585C66.3273 47.886 66.3548 50.2734 66.3548 53.6762L66.3273 60.8385C66.2724 66.272 66.1627 73.1599 65.8334 77.3311H71.1571C72.0627 77.3311 72.8036 78.072 72.8036 78.9776C72.8036 79.8832 72.0901 80.6241 71.1571 80.6241Z" fill="url(#paint4_linear_83_866)"/>
<path d="M110.235 80.6241H103.1C102.194 80.6241 101.453 79.8832 101.453 78.9776C101.453 78.0721 102.194 77.3311 103.1 77.3311H108.423C108.176 73.9832 108.012 68.4949 107.929 60.9483L107.902 53.5939C107.902 50.2186 107.929 47.8586 107.929 47.8586C107.929 46.953 108.67 46.2395 109.576 46.2395C109.576 46.2395 109.576 46.2395 109.603 46.2395C110.509 46.2395 111.25 46.9804 111.222 47.9135C111.222 47.9409 111.195 50.2735 111.195 53.6214L111.222 60.9483C111.305 69.8669 111.524 76.0414 111.854 78.813C111.908 79.2795 111.771 79.746 111.442 80.1028C111.14 80.4321 110.701 80.6241 110.235 80.6241Z" fill="url(#paint5_linear_83_866)"/>
<path d="M52.084 54.1153C52.0566 54.1153 52.0291 54.1153 51.9742 54.1153C51.0686 54.0605 50.3826 53.2921 50.4375 52.3865C50.5747 50.0539 50.2454 43.4953 47.2268 41.1902C45.8821 40.1749 44.071 40.0651 41.6835 40.8884C35.6463 42.9739 27.4961 42.9739 21.4589 40.8884C19.0714 40.0651 17.2603 40.1474 15.9156 41.1902C12.8696 43.4953 12.5677 50.0539 12.7049 52.3865C12.7598 53.2921 12.0738 54.0605 11.1682 54.1153C10.2626 54.1702 9.49422 53.4842 9.43934 52.5786C9.4119 52.167 8.91794 42.3977 13.9398 38.5832C16.19 36.8819 19.0989 36.6074 22.5565 37.8149C27.8803 39.6535 35.317 39.6535 40.6133 37.8149C44.071 36.6074 46.9524 36.8819 49.23 38.5832C54.2793 42.3977 53.7579 52.167 53.7305 52.5786C53.6756 53.4293 52.9347 54.1153 52.084 54.1153Z" fill="url(#paint6_linear_83_866)"/>
<path d="M91.4921 100.574H82.8479C80.9819 100.574 79.1982 99.8609 77.8261 98.5985L77.7986 98.5711C77.0577 97.8851 76.0972 97.5009 75.0819 97.4734L73.1061 97.446C69.0996 97.3911 65.834 94.0981 65.834 90.0916V88.7195C65.834 80.8437 72.2279 74.4497 80.1038 74.4497H81.421C82.3265 74.4497 83.0675 75.1906 83.0675 76.0962C83.0675 77.0018 82.3265 77.7427 81.421 77.7427H80.1038C74.0391 77.7427 69.127 82.6548 69.127 88.7195V90.0916C69.127 92.3144 70.9382 94.1255 73.1335 94.153L75.1093 94.1804C76.9479 94.2079 78.7042 94.9213 80.0489 96.1562L80.0763 96.1837C80.8447 96.8972 81.8326 97.2813 82.8479 97.2813H91.4921C92.5349 97.2813 93.5228 96.8972 94.2638 96.1837C95.6358 94.8939 97.4196 94.2078 99.2856 94.2078H101.152C103.402 94.2078 105.213 92.3967 105.213 90.1465V88.7195C105.213 82.6548 100.301 77.7427 94.2363 77.7427H92.8917C91.9861 77.7427 91.2451 77.0018 91.2451 76.0962C91.2451 75.1906 91.9861 74.4497 92.8917 74.4497H94.2363C102.112 74.4497 108.506 80.8437 108.506 88.7195V90.1465C108.506 94.2078 105.213 97.5009 101.152 97.5009H99.2856C98.2428 97.5009 97.2549 97.8851 96.514 98.5985C95.1419 99.8609 93.3582 100.574 91.4921 100.574Z" fill="#121331"/>
<defs>
<linearGradient id="paint0_linear_83_866" x1="8.25781" y1="35.8012" x2="53.7279" y2="35.725" gradientUnits="userSpaceOnUse">
<stop stop-color="#3000D6"/>
<stop offset="1" stop-color="#3DD0F0"/>
</linearGradient>
<linearGradient id="paint1_linear_83_866" x1="35.6465" y1="87.5944" x2="44.7023" y2="87.5608" gradientUnits="userSpaceOnUse">
<stop stop-color="#3000D6"/>
<stop offset="1" stop-color="#3DD0F0"/>
</linearGradient>
<linearGradient id="paint2_linear_83_866" x1="91.2715" y1="87.5944" x2="100.327" y2="87.5608" gradientUnits="userSpaceOnUse">
<stop stop-color="#3000D6"/>
<stop offset="1" stop-color="#3DD0F0"/>
</linearGradient>
<linearGradient id="paint3_linear_83_866" x1="63.0605" y1="36.2095" x2="111.304" y2="36.0876" gradientUnits="userSpaceOnUse">
<stop stop-color="#3000D6"/>
<stop offset="1" stop-color="#3DD0F0"/>
</linearGradient>
<linearGradient id="paint4_linear_83_866" x1="62.3652" y1="63.4181" x2="72.8037" y2="63.4138" gradientUnits="userSpaceOnUse">
<stop stop-color="#3000D6"/>
<stop offset="1" stop-color="#3DD0F0"/>
</linearGradient>
<linearGradient id="paint5_linear_83_866" x1="101.453" y1="63.4318" x2="111.865" y2="63.4276" gradientUnits="userSpaceOnUse">
<stop stop-color="#3000D6"/>
<stop offset="1" stop-color="#3DD0F0"/>
</linearGradient>
<linearGradient id="paint6_linear_83_866" x1="9.41406" y1="45.5958" x2="53.758" y2="45.4401" gradientUnits="userSpaceOnUse">
<stop stop-color="#3000D6"/>
<stop offset="1" stop-color="#3DD0F0"/>
</linearGradient>
</defs>
</svg>
