<svg width="194" height="135" viewBox="0 0 194 135" fill="none" xmlns="http://www.w3.org/2000/svg">
<path d="M16.5501 133.618C12.223 135.588 7.07932 133.686 5.50102 129.202C1.17981 116.923 -0.635803 103.871 0.196915 90.8224C1.21283 74.903 6.13911 59.4799 14.5394 45.9192C22.9397 32.3584 34.5547 21.0787 48.3556 13.0791C62.1565 5.07946 77.7172 0.606886 93.6595 0.0575374C109.602 -0.491811 125.434 2.89902 139.752 9.92968C154.071 16.9603 166.435 27.4138 175.749 40.3641C185.063 53.3144 191.039 68.3619 193.148 84.1736C194.877 97.134 193.964 110.28 190.499 122.827C189.233 127.409 184.232 129.661 179.78 127.994C175.327 126.327 173.118 121.372 174.296 116.766C176.821 106.894 177.437 96.603 176.083 86.4501C174.348 73.4449 169.432 61.0683 161.772 50.4165C154.111 39.7648 143.941 31.1667 132.164 25.3839C120.387 19.6011 107.365 16.8121 94.2524 17.264C81.1397 17.7158 68.3409 21.3946 56.9895 27.9743C45.6382 34.5541 36.0848 43.8318 29.1754 54.9856C22.2661 66.1394 18.2142 78.825 17.3786 91.9189C16.7263 102.141 18.0499 112.365 21.2479 122.04C22.7401 126.554 20.8772 131.649 16.5501 133.618Z" fill="url(#paint0_linear_83_861)"/>
<defs>
<linearGradient id="paint0_linear_83_861" x1="194" y1="97" x2="-0.00198206" y2="96.738" gradientUnits="userSpaceOnUse">
<stop stop-color="#3000D6"/>
<stop offset="1" stop-color="#3DD0F0"/>
</linearGradient>
</defs>
</svg>
