<svg width="116" height="131" viewBox="0 0 116 131" fill="none" xmlns="http://www.w3.org/2000/svg">
<path d="M104.377 130.649C106.199 131.48 108.357 130.675 109.11 128.819C115.273 113.632 117.361 97.0589 115.134 80.7666C112.742 63.2727 105.471 46.8175 94.1635 33.3053C82.856 19.7931 67.9736 9.77644 51.2389 4.41457C35.6557 -0.57839 19.0594 -1.34496 3.12335 2.16045C1.1685 2.59046 0.00788879 4.57573 0.508942 6.51359C1.01185 8.45862 2.99752 9.61755 4.96111 9.19286C19.5693 6.03339 34.7681 6.76146 49.045 11.3359C64.4795 16.2812 78.2056 25.5196 88.6346 37.982C99.0637 50.4444 105.769 65.6212 107.975 81.7559C110.019 96.6986 108.125 111.897 102.514 125.841C101.771 127.688 102.565 129.822 104.377 130.649Z" fill="#EEF0F2"/>
</svg>
