<svg width="57" height="122" viewBox="0 0 57 122" fill="none" xmlns="http://www.w3.org/2000/svg">
<path d="M45.3768 121.649C47.1987 122.48 49.3565 121.675 50.1096 119.819C54.2603 109.591 56.5788 98.6941 56.9477 87.634C57.3571 75.3623 55.3583 63.1298 51.0654 51.6347C46.7726 40.1396 40.2698 29.6072 31.9282 20.6388C24.4161 12.5621 15.5453 5.89636 5.7335 0.942911C3.93933 0.0371314 1.77716 0.853977 0.9499 2.68568V2.68568C0.127354 4.50696 0.936218 6.6435 2.7175 7.54941C11.6771 12.106 19.7801 18.2133 26.6507 25.6003C34.3442 33.872 40.3418 43.5861 44.3011 54.1881C48.2604 64.7901 50.1039 76.0723 49.7264 87.3906C49.3889 97.5068 47.283 107.475 43.5142 116.841C42.7708 118.688 43.5653 120.822 45.3768 121.649V121.649Z" fill="#EEF0F2"/>
</svg>
